<svg width="24" height="24" viewBox="0 0 24 24" fill="none" xmlns="http://www.w3.org/2000/svg">
  <rect width="24" height="24" rx="4" fill="#4CD4A1" opacity="0" />
  <path d="M20 6H16V4C16 2.89 15.11 2 14 2H10C8.89 2 8 2.89 8 4V6H4C2.89 6 2 6.89 2 8V19C2 20.11 2.89 21 4 21H20C21.11 21 22 20.11 22 19V8C22 6.89 21.11 6 20 6ZM10 4H14V6H10V4ZM20 19H4V8H20V19Z" fill="#4CD4A1"/>
  <path d="M7 14C8.66 14 10 12.66 10 11C10 9.34 8.66 8 7 8C5.34 8 4 9.34 4 11C4 12.66 5.34 14 7 14ZM7 10C7.55 10 8 10.45 8 11C8 11.55 7.55 12 7 12C6.45 12 6 11.55 6 11C6 10.45 6.45 10 7 10Z" fill="#4CD4A1"/>
  <path d="M13 14H20V16H13V14Z" fill="#4CD4A1"/>
  <path d="M13 11H20V13H13V11Z" fill="#4CD4A1"/>
  <path d="M13 8H20V10H13V8Z" fill="#4CD4A1"/>
</svg>
