<svg width="24" height="24" viewBox="0 0 24 24" fill="none" xmlns="http://www.w3.org/2000/svg">
  <rect width="24" height="24" rx="4" fill="#4CD4A1" opacity="0" />
  <path d="M16 11C17.66 11 18.99 9.66 18.99 8C18.99 6.34 17.66 5 16 5C14.34 5 13 6.34 13 8C13 9.66 14.34 11 16 11ZM16 7C16.55 7 17 7.45 17 8C17 8.55 16.55 9 16 9C15.45 9 15 8.55 15 8C15 7.45 15.45 7 16 7Z" fill="#4CD4A1"/>
  <path d="M8 11C9.66 11 10.99 9.66 10.99 8C10.99 6.34 9.66 5 8 5C6.34 5 5 6.34 5 8C5 9.66 6.34 11 8 11ZM8 7C8.55 7 9 7.45 9 8C9 8.55 8.55 9 8 9C7.45 9 7 8.55 7 8C7 7.45 7.45 7 8 7Z" fill="#4CD4A1"/>
  <path d="M8 13C5.67 13 1 14.17 1 16.5V19H15V16.5C15 14.17 10.33 13 8 13ZM13 17H3V16.5C3 15.97 5.61 15 8 15C10.39 15 13 15.97 13 16.5V17Z" fill="#4CD4A1"/>
  <path d="M16 13C15.71 13 15.38 13.02 15.03 13.05C15.05 13.06 15.06 13.08 15.07 13.09C16.21 13.92 17 15.03 17 16.5V17H23V16.5C23 14.17 18.33 13 16 13Z" fill="#4CD4A1"/>
</svg>
