<svg width="100" height="92" viewBox="0 0 100 92" fill="none" xmlns="http://www.w3.org/2000/svg">
<path fill-rule="evenodd" clip-rule="evenodd" d="M57.6888 0.932819C69.4981 -1.15117 82.9662 -0.149708 91.5305 8.13546C100.139 16.4631 100.618 29.6581 99.634 41.5106C98.7402 52.2803 93.4153 61.5272 86.4098 69.8356C78.4315 79.2978 69.9983 89.2409 57.6888 91.2574C43.5169 93.579 28.2687 90.5262 17.5255 81.1201C6.25833 71.2553 -2.92602 55.8901 0.87041 41.5106C4.42899 28.032 22.6814 26.4357 34.1199 18.2667C42.3716 12.3736 47.66 2.70259 57.6888 0.932819Z" fill="#EDF9F4"/>
<path d="M77.1875 66.5625H69.6875V72.1875H74.375C75.9284 72.1875 77.1875 70.9284 77.1875 69.375V66.5625Z" fill="#3C9F74"/>
<path d="M22.8125 30.9375V63.75C22.8125 65.3034 24.0716 66.5625 25.625 66.5625H74.375C75.9284 66.5625 77.1875 67.8216 77.1875 69.375V33.75C77.1875 32.1966 75.9284 30.9375 74.375 30.9375H22.8125Z" fill="#4DC591"/>
<path d="M74.375 50.625H48.125C39.8403 50.625 33.125 43.9097 33.125 35.625V30.9375H22.8125V63.75C22.8125 65.3034 24.0716 66.5625 25.625 66.5625H74.375C75.9284 66.5625 77.1875 67.8216 77.1875 69.375V53.4375C77.1875 51.8841 75.9284 50.625 74.375 50.625Z" fill="#6BCFA4"/>
<path d="M22.8125 30.9375V63.75C22.8125 62.1966 24.0716 60.9375 25.625 60.9375H30.3125V28.125H25.625C24.0716 28.125 22.8125 29.3841 22.8125 30.9375Z" fill="#3C9F74"/>
<path d="M70.625 51.5625C71.6605 51.5625 72.5 50.723 72.5 49.6875C72.5 48.652 71.6605 47.8125 70.625 47.8125C69.5895 47.8125 68.75 48.652 68.75 49.6875C68.75 50.723 69.5895 51.5625 70.625 51.5625Z" fill="#E9F1F2"/>
<path d="M49.0625 60C50.098 60 50.9375 59.1605 50.9375 58.125C50.9375 57.0895 50.098 56.25 49.0625 56.25C48.027 56.25 47.1875 57.0895 47.1875 58.125C47.1875 59.1605 48.027 60 49.0625 60Z" fill="#E9F1F2"/>
<path d="M54.6875 52.5C55.723 52.5 56.5625 51.6605 56.5625 50.625C56.5625 49.5895 55.723 48.75 54.6875 48.75C53.652 48.75 52.8125 49.5895 52.8125 50.625C52.8125 51.6605 53.652 52.5 54.6875 52.5Z" fill="#E9F1F2"/>
<path d="M35.9375 58.125C36.973 58.125 37.8125 57.2855 37.8125 56.25C37.8125 55.2145 36.973 54.375 35.9375 54.375C34.902 54.375 34.0625 55.2145 34.0625 56.25C34.0625 57.2855 34.902 58.125 35.9375 58.125Z" fill="#E9F1F2"/>
<path d="M42.0312 66.0938C43.0668 66.0938 43.9062 65.2543 43.9062 64.2188C43.9062 63.1832 43.0668 62.3438 42.0312 62.3438C40.9957 62.3438 40.1562 63.1832 40.1562 64.2188C40.1562 65.2543 40.9957 66.0938 42.0312 66.0938Z" fill="#E9F1F2"/>
<path d="M42.0312 65.1562C42.549 65.1562 42.9688 64.7365 42.9688 64.2188C42.9688 63.701 42.549 63.2812 42.0312 63.2812C41.5135 63.2812 41.0938 63.701 41.0938 64.2188C41.0938 64.7365 41.5135 65.1562 42.0312 65.1562Z" fill="#D0D8DA"/>
<path d="M70.625 50.625C71.1428 50.625 71.5625 50.2053 71.5625 49.6875C71.5625 49.1697 71.1428 48.75 70.625 48.75C70.1072 48.75 69.6875 49.1697 69.6875 49.6875C69.6875 50.2053 70.1072 50.625 70.625 50.625Z" fill="#D0D8DA"/>
<path d="M54.6875 51.5625C55.2053 51.5625 55.625 51.1428 55.625 50.625C55.625 50.1072 55.2053 49.6875 54.6875 49.6875C54.1697 49.6875 53.75 50.1072 53.75 50.625C53.75 51.1428 54.1697 51.5625 54.6875 51.5625Z" fill="#D0D8DA"/>
<path d="M49.0625 59.0625C49.5803 59.0625 50 58.6428 50 58.125C50 57.6072 49.5803 57.1875 49.0625 57.1875C48.5447 57.1875 48.125 57.6072 48.125 58.125C48.125 58.6428 48.5447 59.0625 49.0625 59.0625Z" fill="#D0D8DA"/>
<path d="M35.9375 57.1875C36.4553 57.1875 36.875 56.7678 36.875 56.25C36.875 55.7322 36.4553 55.3125 35.9375 55.3125C35.4197 55.3125 35 55.7322 35 56.25C35 56.7678 35.4197 57.1875 35.9375 57.1875Z" fill="#D0D8DA"/>
<path d="M48.125 44.0625H50V56.25H48.125V44.0625Z" fill="#EDB88E"/>
<path d="M53.75 41.9531H55.625V48.75H53.75V41.9531Z" fill="#EDB88E"/>
<path d="M71.5641 47.8125H69.6891V44.0625H54.0703V42.1875H70.6266C71.1441 42.1875 71.5641 42.6066 71.5641 43.125V47.8125Z" fill="#EDB88E"/>
<path d="M36.875 54.3712H35V48.7462C35 48.3422 35.2578 47.985 35.6413 47.8575L37.8125 47.1328V39.5391H39.6875V47.8087C39.6875 48.2128 39.4297 48.57 39.0462 48.6975L36.875 49.4222V54.3712Z" fill="#EDB88E"/>
<path d="M42.9688 62.3422H41.0938V52.9672C41.0938 52.5631 41.3516 52.2059 41.735 52.0784L43.9062 51.3547V43.4141H45.7812V52.0297C45.7812 52.4337 45.5234 52.7909 45.14 52.9184L42.9688 53.6431V62.3422Z" fill="#EDB88E"/>
<path d="M70.625 52.5C69.0744 52.5 67.8125 51.2381 67.8125 49.6875C67.8125 48.1369 69.0744 46.875 70.625 46.875C72.1756 46.875 73.4375 48.1369 73.4375 49.6875C73.4375 51.2381 72.1756 52.5 70.625 52.5ZM70.625 48.75C70.1084 48.75 69.6875 49.17 69.6875 49.6875C69.6875 50.205 70.1084 50.625 70.625 50.625C71.1416 50.625 71.5625 50.205 71.5625 49.6875C71.5625 49.17 71.1416 48.75 70.625 48.75Z" fill="#E9F1F2"/>
<path d="M49.0625 60.9375C47.5119 60.9375 46.25 59.6756 46.25 58.125C46.25 56.5744 47.5119 55.3125 49.0625 55.3125C50.6131 55.3125 51.875 56.5744 51.875 58.125C51.875 59.6756 50.6131 60.9375 49.0625 60.9375ZM49.0625 57.1875C48.5459 57.1875 48.125 57.6075 48.125 58.125C48.125 58.6425 48.5459 59.0625 49.0625 59.0625C49.5791 59.0625 50 58.6425 50 58.125C50 57.6075 49.5791 57.1875 49.0625 57.1875Z" fill="#E9F1F2"/>
<path d="M54.6875 53.4375C53.1369 53.4375 51.875 52.1756 51.875 50.625C51.875 49.0744 53.1369 47.8125 54.6875 47.8125C56.2381 47.8125 57.5 49.0744 57.5 50.625C57.5 52.1756 56.2381 53.4375 54.6875 53.4375ZM54.6875 49.6875C54.1709 49.6875 53.75 50.1075 53.75 50.625C53.75 51.1425 54.1709 51.5625 54.6875 51.5625C55.2041 51.5625 55.625 51.1425 55.625 50.625C55.625 50.1075 55.2041 49.6875 54.6875 49.6875Z" fill="#E9F1F2"/>
<path d="M35.9375 59.0625C34.3869 59.0625 33.125 57.8006 33.125 56.25C33.125 54.6994 34.3869 53.4375 35.9375 53.4375C37.4881 53.4375 38.75 54.6994 38.75 56.25C38.75 57.8006 37.4881 59.0625 35.9375 59.0625ZM35.9375 55.3125C35.4209 55.3125 35 55.7325 35 56.25C35 56.7675 35.4209 57.1875 35.9375 57.1875C36.4541 57.1875 36.875 56.7675 36.875 56.25C36.875 55.7325 36.4541 55.3125 35.9375 55.3125Z" fill="#E9F1F2"/>
<path d="M42.0312 67.0312C40.4806 67.0312 39.2188 65.7694 39.2188 64.2188C39.2188 62.6681 40.4806 61.4062 42.0312 61.4062C43.5819 61.4062 44.8438 62.6681 44.8438 64.2188C44.8438 65.7694 43.5819 67.0312 42.0312 67.0312ZM42.0312 63.2812C41.5147 63.2812 41.0938 63.7013 41.0938 64.2188C41.0938 64.7362 41.5147 65.1562 42.0312 65.1562C42.5478 65.1562 42.9688 64.7362 42.9688 64.2188C42.9688 63.7013 42.5478 63.2812 42.0312 63.2812Z" fill="#E9F1F2"/>
<path d="M49.0625 45.9375C56.829 45.9375 63.125 39.6415 63.125 31.875C63.125 24.1085 56.829 17.8125 49.0625 17.8125C41.296 17.8125 35 24.1085 35 31.875C35 39.6415 41.296 45.9375 49.0625 45.9375Z" fill="#FCF2AD"/>
<path d="M57.9688 37.9672C50.2025 37.9672 43.9063 31.6709 43.9063 23.9047C43.9063 21.9537 44.3047 20.0956 45.0228 18.4062C39.2263 20.1425 35 25.5116 35 31.8734C35 39.6397 41.2962 45.9359 49.0625 45.9359C54.8778 45.9359 59.8672 42.4053 62.0084 37.3719C60.7278 37.7553 59.3741 37.9672 57.9688 37.9672Z" fill="#F9DBAF"/>
<path d="M49.0625 42.1875C54.7579 42.1875 59.375 37.5704 59.375 31.875C59.375 26.1796 54.7579 21.5625 49.0625 21.5625C43.3671 21.5625 38.75 26.1796 38.75 31.875C38.75 37.5704 43.3671 42.1875 49.0625 42.1875Z" fill="#EDB88E"/>
<path d="M38.75 31.8741C38.75 37.5694 43.3672 42.1866 49.0625 42.1866C52.4881 42.1866 55.5153 40.5094 57.3903 37.9387C49.8941 37.6331 43.9062 31.4766 43.9062 23.9053C43.9062 23.5734 43.9334 23.2481 43.9559 22.9219C40.8491 24.6984 38.75 28.0387 38.75 31.8741Z" fill="#DA9367"/>
<path d="M49.0625 25.3125L53.75 31.875L49.0625 38.4375L44.375 31.875L49.0625 25.3125Z" fill="#F9DBAF"/>
<path d="M49.0625 32.8125L53.75 31.875L49.0625 25.3125L44.375 31.875L49.0625 32.8125Z" fill="#FCF2AD"/>
<path d="M50.81 35.9931C48.5412 34.6506 46.685 32.6922 45.47 30.3438L44.375 31.8775L49.0625 38.44L50.81 35.9931Z" fill="#EDB88E"/>
<path d="M46.7441 32.3519C46.2669 31.72 45.8366 31.0525 45.4709 30.3438L44.375 31.8784L46.7441 32.3519Z" fill="#F9DBAF"/>
<path d="M69.2222 61.875C69.2222 61.2656 69.1369 60.6778 68.9906 60.1144L71.2472 58.8112L69.3722 55.5638L67.1194 56.8641C66.2803 56.0381 65.2331 55.4269 64.065 55.1044V52.5H60.315V55.1044C59.1469 55.4269 58.1006 56.0381 57.2606 56.8641L55.0078 55.5638L53.1328 58.8112L55.3894 60.1144C55.245 60.6778 55.1597 61.2656 55.1597 61.875C55.1597 62.4844 55.245 63.0722 55.3913 63.6356L53.1347 64.9388L55.0097 68.1862L57.2625 66.8859C58.1016 67.7119 59.1487 68.3231 60.3169 68.6456V71.25H64.0669V68.6456C65.235 68.3231 66.2812 67.7119 67.1212 66.8859L69.3741 68.1862L71.2491 64.9388L68.9925 63.6356C69.1369 63.0722 69.2222 62.4844 69.2222 61.875ZM62.1909 64.6875C60.6375 64.6875 59.3784 63.4284 59.3784 61.875C59.3784 60.3216 60.6375 59.0625 62.1909 59.0625C63.7444 59.0625 65.0034 60.3216 65.0034 61.875C65.0034 63.4284 63.7444 64.6875 62.1909 64.6875Z" fill="#E9F1F2"/>
<path d="M65.0016 65.6237C60.3412 65.6237 56.5641 61.8466 56.5641 57.1862C56.5641 56.9481 56.58 56.7147 56.5997 56.4812L55.0078 55.5625L53.1328 58.81L55.3894 60.1131C55.2431 60.6766 55.1578 61.2644 55.1578 61.8737C55.1578 62.4831 55.2431 63.0709 55.3894 63.6344L53.1328 64.9375L55.0078 68.185L57.2606 66.8847C58.0997 67.7106 59.1469 68.3219 60.315 68.6444V71.2487H64.065V68.6444C65.2331 68.3219 66.2794 67.7106 67.1194 66.8847L69.3722 68.185L71.2472 64.9375L69.8166 64.1116C68.4488 65.0622 66.7922 65.6237 65.0016 65.6237Z" fill="#D0D8DA"/>
<path d="M67.3438 61.875C67.3438 59.0269 65.0356 56.7188 62.1875 56.7188C59.3394 56.7188 57.0312 59.0269 57.0312 61.875C57.0312 64.7231 59.3394 67.0312 62.1875 67.0312C65.0356 67.0312 67.3438 64.7231 67.3438 61.875ZM62.1875 64.6875C60.6341 64.6875 59.375 63.4284 59.375 61.875C59.375 60.3216 60.6341 59.0625 62.1875 59.0625C63.7409 59.0625 65 60.3216 65 61.875C65 63.4284 63.7409 64.6875 62.1875 64.6875Z" fill="#D0D8DA"/>
<path d="M65 65.6244C61.5069 65.6244 58.5106 63.5019 57.2281 60.4766C57.1025 60.9219 57.0312 61.3897 57.0312 61.8744C57.0312 64.7225 59.3394 67.0306 62.1875 67.0306C63.5881 67.0306 64.8575 66.47 65.7866 65.5634C65.525 65.5878 65.2681 65.6244 65 65.6244Z" fill="#B8BEBF"/>
<path d="M72.75 26L75.9975 27.875L66.6225 44.1125L63.375 42.2375L72.75 26Z" fill="#D0D8DA"/>
<path d="M66.6237 44.1094L63.3763 42.2344L62.1875 48.0431L66.6237 44.1094Z" fill="#E9F1F2"/>
<path d="M76.2487 23.6888C75.3516 23.1713 74.205 23.4788 73.6875 24.375L72.75 25.9988L75.9975 27.8738L76.935 26.25C77.4525 25.3538 77.145 24.2072 76.2487 23.6888Z" fill="#E9F1F2"/>
<path d="M75.9969 27.8687L66.6219 44.1063L64.8125 43.0656C66.0688 41.5375 67.1938 39.8969 68.1875 38.1812L74.6 27.0813L74.6094 27.0625L75.9969 27.8687Z" fill="#B8BEBF"/>
<path d="M66.6219 44.1109L62.1875 48.0484L62.7313 45.4047C63.4625 44.6547 64.1562 43.8766 64.8125 43.0703L66.6219 44.1109Z" fill="#D0D8DA"/>
<path d="M76.9344 26.2484L75.9969 27.8703L74.6094 27.0641L75.5375 25.4609C75.9125 24.8047 75.8562 24.0266 75.4437 23.4453C75.7156 23.4641 75.9875 23.5484 76.25 23.6891C77.15 24.2047 77.45 25.3484 76.9344 26.2484Z" fill="#D0D8DA"/>
</svg>
