<svg width="87" height="92" viewBox="0 0 87 92" fill="none" xmlns="http://www.w3.org/2000/svg">
<path fill-rule="evenodd" clip-rule="evenodd" d="M40.8107 1.56954C54.3166 -1.60871 70.5575 -0.472142 80.0004 9.76312C89.3155 19.8598 87.5527 35.7465 84.8 49.2498C82.5986 60.0489 74.5337 67.6404 66.6447 75.2796C58.9938 82.6881 51.3795 90.8901 40.8107 91.846C29.4403 92.8744 17.7805 88.7181 9.88139 80.4135C2.11747 72.2511 -1.03189 60.4764 0.29427 49.2498C1.4913 39.1165 9.87377 32.4672 16.4609 24.7154C24.0052 15.8371 29.5147 4.22776 40.8107 1.56954Z" fill="#EDF9F4"/>
<path d="M37.3748 61.8751C37.1573 61.8751 36.938 61.7991 36.7608 61.6463C36.3698 61.307 36.3276 60.7145 36.6661 60.3235L48.8536 46.261C49.1939 45.8682 49.7855 45.8288 50.1764 46.1663C50.5673 46.5057 50.6095 47.0982 50.2711 47.4891L38.0836 61.5516C37.898 61.7654 37.6364 61.8751 37.3748 61.8751Z" fill="#E9F1F2"/>
<path d="M58.0002 61.8754C57.6365 61.8754 57.2905 61.6616 57.1387 61.3072L51.5137 48.1822C51.3093 47.706 51.5305 47.1547 52.0059 46.9513C52.4774 46.7469 53.0324 46.9672 53.2359 47.4435L58.8609 60.5685C59.0652 61.0447 58.844 61.596 58.3687 61.7994C58.2496 61.851 58.124 61.8754 58.0002 61.8754Z" fill="#E9F1F2"/>
<path d="M48.625 45.9375H34.5625C34.0441 45.9375 33.625 45.5175 33.625 45C33.625 44.4825 34.0441 44.0625 34.5625 44.0625H48.625C49.1434 44.0625 49.5625 44.4825 49.5625 45C49.5625 45.5175 49.1434 45.9375 48.625 45.9375Z" fill="#E9F1F2"/>
<path d="M27.0625 17.8125H38.3125V25.3125H27.0625V17.8125Z" fill="#D0D8DA"/>
<path d="M30.8125 17.8125H27.0625V25.3125H38.3125L30.8125 17.8125Z" fill="#B8BEBF"/>
<path d="M34.5625 29.0625H30.8125V23.4375C30.8125 22.4016 31.6516 21.5625 32.6875 21.5625C33.7234 21.5625 34.5625 22.4016 34.5625 23.4375V29.0625Z" fill="#E9F1F2"/>
<path d="M32.6875 25.3125V21.5625C31.6516 21.5625 30.8125 22.4016 30.8125 23.4375V29.0625H34.5625V27.1875C33.5266 27.1875 32.6875 26.3484 32.6875 25.3125Z" fill="#D0D8DA"/>
<path d="M24.25 24.375C25.2855 24.375 26.125 23.5355 26.125 22.5C26.125 21.4645 25.2855 20.625 24.25 20.625C23.2145 20.625 22.375 21.4645 22.375 22.5C22.375 23.5355 23.2145 24.375 24.25 24.375Z" fill="#F9CDAE"/>
<path d="M25.1875 24.375H23.3125C22.2766 24.375 21.4375 25.2141 21.4375 26.25V29.0625H27.0625V26.25C27.0625 25.2141 26.2234 24.375 25.1875 24.375Z" fill="#F6B98D"/>
<path d="M25.1875 23.4406C24.1516 23.4406 23.3125 22.6016 23.3125 21.5656C23.3125 21.2909 23.3753 21.0322 23.4813 20.7969C22.8297 21.0903 22.375 21.7419 22.375 22.5031C22.375 23.5391 23.2141 24.3781 24.25 24.3781C25.0103 24.3781 25.6628 23.9234 25.9562 23.2719C25.7209 23.3778 25.4622 23.4406 25.1875 23.4406Z" fill="#F6B98D"/>
<path d="M25.1875 27.1875C23.8909 27.1875 22.8109 26.3053 22.4847 25.1119C22.7359 25.2366 23.0144 25.3125 23.3125 25.3125C24.0044 25.3125 24.6025 24.9328 24.9278 24.375H23.3125C22.2766 24.375 21.4375 25.2141 21.4375 26.25V29.0625H27.0625V27.1875H25.1875Z" fill="#F3A268"/>
<path d="M49.5634 44.0625C49.2878 44.0625 49.0159 43.9425 48.8303 43.7109L37.8625 30H19.5625C19.0441 30 18.625 29.58 18.625 29.0625C18.625 28.545 19.0441 28.125 19.5625 28.125H38.3125C38.5975 28.125 38.8666 28.2544 39.0447 28.4766L50.2947 42.5391C50.6181 42.9431 50.5516 43.5338 50.1484 43.8563C49.975 43.995 49.7687 44.0625 49.5634 44.0625Z" fill="#E9F1F2"/>
<path d="M51.4375 17.8125H66.4375V45H51.4375V17.8125Z" fill="#E9F1F2"/>
<path d="M66.4375 32.8125H70.1875V45H66.4375V32.8125Z" fill="#D0D8DA"/>
<path d="M64.5625 37.5V21.5625C64.5625 20.5266 63.7234 19.6875 62.6875 19.6875H55.1875C54.1516 19.6875 53.3125 18.8484 53.3125 17.8125H51.4375V45H66.4375V39.375C65.4016 39.375 64.5625 38.5359 64.5625 37.5Z" fill="#D0D8DA"/>
<path d="M51.4375 29.0625H55.1875V32.8125H51.4375V29.0625Z" fill="#A0A2A4"/>
<path d="M55.1875 29.0625H58.9375V32.8125H55.1875V29.0625Z" fill="#A0A2A4"/>
<path d="M58.9375 29.0625H62.6875V32.8125H58.9375V29.0625Z" fill="#A0A2A4"/>
<path d="M51.4375 36.5625H55.1875V40.3125H51.4375V36.5625Z" fill="#A0A2A4"/>
<path d="M55.1875 36.5625H58.9375V40.3125H55.1875V36.5625Z" fill="#A0A2A4"/>
<path d="M58.9375 36.5625H62.6875V40.3125H58.9375V36.5625Z" fill="#A0A2A4"/>
<path d="M51.4375 21.5625H55.1875V25.3125H51.4375V21.5625Z" fill="#A0A2A4"/>
<path d="M55.1875 21.5625H58.9375V25.3125H55.1875V21.5625Z" fill="#A0A2A4"/>
<path d="M58.9375 21.5625H62.6875V25.3125H58.9375V21.5625Z" fill="#A0A2A4"/>
<path d="M51.4375 48.75C53.5086 48.75 55.1875 47.0711 55.1875 45C55.1875 42.9289 53.5086 41.25 51.4375 41.25C49.3664 41.25 47.6875 42.9289 47.6875 45C47.6875 47.0711 49.3664 48.75 51.4375 48.75Z" fill="#6BCFA4"/>
<path d="M62.6875 25.3125H58.9375V21.5625L62.6875 25.3125Z" fill="#3F4246"/>
<path d="M58.9375 25.3125H55.1875V21.5625L58.9375 25.3125Z" fill="#3F4246"/>
<path d="M55.1875 25.3125H51.4375V21.5625L55.1875 25.3125Z" fill="#3F4246"/>
<path d="M62.6875 32.8125H58.9375V29.0625L62.6875 32.8125Z" fill="#3F4246"/>
<path d="M58.9375 32.8125H55.1875V29.0625L58.9375 32.8125Z" fill="#3F4246"/>
<path d="M55.1875 32.8125H51.4375V29.0625L55.1875 32.8125Z" fill="#3F4246"/>
<path d="M62.6875 40.3125H58.9375V36.5625L62.6875 40.3125Z" fill="#3F4246"/>
<path d="M58.9375 40.3125H55.1875V36.5625L58.9375 40.3125Z" fill="#3F4246"/>
<path d="M55.1875 40.3125H51.4375V36.5625L55.1875 40.3125Z" fill="#3F4246"/>
<path d="M68.3125 40.3125V32.8125H66.4375V45H70.1875V42.1875C69.1516 42.1875 68.3125 41.3484 68.3125 40.3125Z" fill="#B8BEBF"/>
<path d="M54.25 45.9378C52.1791 45.9378 50.5 44.2588 50.5 42.1878C50.5 41.8991 50.5394 41.6216 50.6013 41.3516C48.9344 41.7322 47.6875 43.2181 47.6875 45.0003C47.6875 47.0713 49.3666 48.7503 51.4375 48.7503C53.2197 48.7503 54.7056 47.5034 55.0862 45.8366C54.8162 45.8984 54.5388 45.9378 54.25 45.9378Z" fill="#4DC591"/>
<path d="M25.1875 38.4375H36.4375V45.9375H25.1875V38.4375Z" fill="#D0D8DA"/>
<path d="M28.9375 38.4375H25.1875V45.9375H36.4375L28.9375 38.4375Z" fill="#B8BEBF"/>
<path d="M32.6875 49.6875H28.9375V44.0625C28.9375 43.0266 29.7766 42.1875 30.8125 42.1875C31.8484 42.1875 32.6875 43.0266 32.6875 44.0625V49.6875Z" fill="#E9F1F2"/>
<path d="M30.8125 45.9375V42.1875C29.7766 42.1875 28.9375 43.0266 28.9375 44.0625V49.6875H32.6875V47.8125C31.6516 47.8125 30.8125 46.9734 30.8125 45.9375Z" fill="#D0D8DA"/>
<path d="M22.375 45C23.4105 45 24.25 44.1605 24.25 43.125C24.25 42.0895 23.4105 41.25 22.375 41.25C21.3395 41.25 20.5 42.0895 20.5 43.125C20.5 44.1605 21.3395 45 22.375 45Z" fill="#F9CDAE"/>
<path d="M23.3125 45H21.4375C20.4016 45 19.5625 45.8391 19.5625 46.875V49.6875H25.1875V46.875C25.1875 45.8391 24.3484 45 23.3125 45Z" fill="#F6B98D"/>
<path d="M23.3125 44.0656C22.2766 44.0656 21.4375 43.2266 21.4375 42.1906C21.4375 41.9159 21.5003 41.6572 21.6063 41.4219C20.9547 41.7153 20.5 42.3669 20.5 43.1281C20.5 44.1641 21.3391 45.0031 22.375 45.0031C23.1353 45.0031 23.7878 44.5484 24.0812 43.8969C23.8459 44.0028 23.5872 44.0656 23.3125 44.0656Z" fill="#F6B98D"/>
<path d="M23.3125 47.8125C22.0159 47.8125 20.9359 46.9303 20.6097 45.7369C20.8609 45.8616 21.1394 45.9375 21.4375 45.9375C22.1294 45.9375 22.7275 45.5578 23.0528 45H21.4375C20.4016 45 19.5625 45.8391 19.5625 46.875V49.6875H25.1875V47.8125H23.3125Z" fill="#F3A268"/>
<path d="M35.5 50.625H16.75C16.2316 50.625 15.8125 50.205 15.8125 49.6875C15.8125 49.17 16.2316 48.75 16.75 48.75H35.5C36.0184 48.75 36.4375 49.17 36.4375 49.6875C36.4375 50.205 36.0184 50.625 35.5 50.625Z" fill="#E9F1F2"/>
<path d="M26.125 59.0625H37.375V66.5625H26.125V59.0625Z" fill="#D0D8DA"/>
<path d="M29.875 59.0625H26.125V66.5625H37.375L29.875 59.0625Z" fill="#B8BEBF"/>
<path d="M33.625 70.3125H29.875V64.6875C29.875 63.6516 30.7141 62.8125 31.75 62.8125C32.7859 62.8125 33.625 63.6516 33.625 64.6875V70.3125Z" fill="#E9F1F2"/>
<path d="M31.75 66.5625V62.8125C30.7141 62.8125 29.875 63.6516 29.875 64.6875V70.3125H33.625V68.4375C32.5891 68.4375 31.75 67.5984 31.75 66.5625Z" fill="#D0D8DA"/>
<path d="M23.3125 65.625C24.348 65.625 25.1875 64.7855 25.1875 63.75C25.1875 62.7145 24.348 61.875 23.3125 61.875C22.277 61.875 21.4375 62.7145 21.4375 63.75C21.4375 64.7855 22.277 65.625 23.3125 65.625Z" fill="#F9CDAE"/>
<path d="M24.25 65.625H22.375C21.3391 65.625 20.5 66.4641 20.5 67.5V70.3125H26.125V67.5C26.125 66.4641 25.2859 65.625 24.25 65.625Z" fill="#F6B98D"/>
<path d="M24.25 64.6906C23.2141 64.6906 22.375 63.8516 22.375 62.8156C22.375 62.5409 22.4378 62.2822 22.5438 62.0469C21.8922 62.3403 21.4375 62.9919 21.4375 63.7531C21.4375 64.7891 22.2766 65.6281 23.3125 65.6281C24.0728 65.6281 24.7253 65.1734 25.0187 64.5219C24.7834 64.6278 24.5247 64.6906 24.25 64.6906Z" fill="#F6B98D"/>
<path d="M24.25 68.4375C22.9534 68.4375 21.8734 67.5553 21.5472 66.3619C21.7984 66.4866 22.0769 66.5625 22.375 66.5625C23.0669 66.5625 23.665 66.1828 23.9903 65.625H22.375C21.3391 65.625 20.5 66.4641 20.5 67.5V70.3125H26.125V68.4375H24.25Z" fill="#F3A268"/>
<path d="M37.375 72.1875H18.625C18.1066 72.1875 17.6875 71.7675 17.6875 71.25C17.6875 70.7325 18.1066 70.3125 18.625 70.3125H37.375C37.8934 70.3125 38.3125 70.7325 38.3125 71.25C38.3125 71.7675 37.8934 72.1875 37.375 72.1875Z" fill="#E9F1F2"/>
<path d="M57.0625 59.0625H68.3125V66.5625H57.0625V59.0625Z" fill="#D0D8DA"/>
<path d="M60.8125 59.0625H57.0625V66.5625H68.3125L60.8125 59.0625Z" fill="#B8BEBF"/>
<path d="M64.5625 70.3125H60.8125V64.6875C60.8125 63.6516 61.6516 62.8125 62.6875 62.8125C63.7234 62.8125 64.5625 63.6516 64.5625 64.6875V70.3125Z" fill="#E9F1F2"/>
<path d="M62.6875 66.5625V62.8125C61.6516 62.8125 60.8125 63.6516 60.8125 64.6875V70.3125H64.5625V68.4375C63.5266 68.4375 62.6875 67.5984 62.6875 66.5625Z" fill="#D0D8DA"/>
<path d="M54.25 65.625C55.2855 65.625 56.125 64.7855 56.125 63.75C56.125 62.7145 55.2855 61.875 54.25 61.875C53.2145 61.875 52.375 62.7145 52.375 63.75C52.375 64.7855 53.2145 65.625 54.25 65.625Z" fill="#F9CDAE"/>
<path d="M55.1875 65.625H53.3125C52.2766 65.625 51.4375 66.4641 51.4375 67.5V70.3125H57.0625V67.5C57.0625 66.4641 56.2234 65.625 55.1875 65.625Z" fill="#F6B98D"/>
<path d="M55.1875 64.6906C54.1516 64.6906 53.3125 63.8516 53.3125 62.8156C53.3125 62.5409 53.3753 62.2822 53.4813 62.0469C52.8297 62.3403 52.375 62.9919 52.375 63.7531C52.375 64.7891 53.2141 65.6281 54.25 65.6281C55.0103 65.6281 55.6628 65.1734 55.9562 64.5219C55.7209 64.6278 55.4622 64.6906 55.1875 64.6906Z" fill="#F6B98D"/>
<path d="M55.1875 68.4375C53.8909 68.4375 52.8109 67.5553 52.4847 66.3619C52.7359 66.4866 53.0144 66.5625 53.3125 66.5625C54.0044 66.5625 54.6025 66.1828 54.9278 65.625H53.3125C52.2766 65.625 51.4375 66.4641 51.4375 67.5V70.3125H57.0625V68.4375H55.1875Z" fill="#F3A268"/>
<path d="M68.3125 72.1875H49.5625C49.0441 72.1875 48.625 71.7675 48.625 71.25C48.625 70.7325 49.0441 70.3125 49.5625 70.3125H68.3125C68.8309 70.3125 69.25 70.7325 69.25 71.25C69.25 71.7675 68.8309 72.1875 68.3125 72.1875Z" fill="#E9F1F2"/>
</svg>
