<svg width="358" height="71" viewBox="0 0 358 71" fill="none" xmlns="http://www.w3.org/2000/svg">
<g opacity="0.5">
<path d="M121.22 15.6094L135.775 53.7568H126.616L122.876 42.6875L122.762 42.3477H111.515L111.399 42.6875L107.66 53.7568H98.5537L113.058 15.6094H121.22ZM116.682 26.4658L113.576 35.7412L113.355 36.3994H120.974L120.753 35.7412L117.647 26.4658L117.533 26.124H116.796L116.682 26.4658Z" stroke="white"/>
<path d="M153.351 15.25C155.031 15.25 156.683 15.4344 158.32 15.8154L159.021 15.9912C160.654 16.4286 162.119 17.0225 163.443 17.793L164.003 18.1338C165.368 19.0068 166.475 20.0854 167.354 21.3867L167.527 21.6494C168.335 22.9145 168.788 24.3498 168.904 25.9941H161.499C161.334 25.4381 161.083 24.9302 160.717 24.4795L160.514 24.2461C159.977 23.6784 159.365 23.2072 158.663 22.8135C157.962 22.4206 157.185 22.1201 156.35 21.9502H156.351C155.523 21.7644 154.682 21.6914 153.868 21.6914C153.148 21.6914 152.425 21.7625 151.702 21.917L151.393 21.9883L151.39 21.9893C150.687 22.167 150.043 22.4038 149.465 22.7168L149.221 22.8555C148.653 23.1956 148.186 23.6133 147.812 24.0938L147.657 24.3037L147.653 24.3105C147.291 24.8473 147.091 25.4562 147.044 26.125L146.997 26.1484V26.459C146.997 27.6994 147.72 28.6559 148.957 29.2979V29.2988C149.974 29.8412 151.206 30.3351 152.631 30.8076L153.253 31.0088C154.095 31.2745 154.978 31.5409 155.897 31.8105L158.764 32.6357C160.712 33.1908 162.514 33.9174 164.154 34.8311C165.677 35.6792 166.964 36.7339 168.01 37.9932L168.216 38.248C169.256 39.5701 169.805 41.3052 169.805 43.4404C169.805 45.1183 169.445 46.5654 168.727 47.8125L168.578 48.0596C167.795 49.3072 166.788 50.3614 165.54 51.2109L165.287 51.3779C164.083 52.1513 162.715 52.7599 161.18 53.1992L160.512 53.377C158.693 53.8263 156.841 54.0674 154.921 54.0674C153.238 54.0674 151.461 53.8817 149.732 53.5L148.995 53.3252L148.99 53.3242L148.27 53.1309C146.848 52.7219 145.545 52.1707 144.354 51.4844L143.767 51.1299C142.331 50.2214 141.158 49.1067 140.241 47.8008L140.061 47.5371C139.222 46.2717 138.752 44.7755 138.635 43.0586H146.052C146.246 43.6542 146.533 44.2016 146.916 44.6895L147.123 44.9365C147.687 45.5709 148.382 46.0817 149.194 46.4932V46.4941C149.885 46.8514 150.633 47.1384 151.44 47.3291L151.79 47.4053C152.707 47.5865 153.633 47.6963 154.582 47.6963C155.407 47.6963 156.195 47.6265 156.969 47.4727L157.3 47.4014C158.172 47.1996 158.958 46.9191 159.658 46.4961L159.657 46.4951C160.345 46.0976 160.916 45.6161 161.354 45.0254C161.815 44.4051 162.042 43.6996 162.042 42.876C162.042 41.6338 161.317 40.679 160.087 40.0039C158.926 39.3668 157.484 38.7732 155.785 38.2373H155.784C154.944 37.9637 154.065 37.6856 153.148 37.4014L150.282 36.5254C148.577 36.0094 146.984 35.3614 145.512 34.583L144.888 34.2412C143.365 33.3768 142.075 32.3059 141.028 31.043L140.822 30.7871C139.78 29.4634 139.234 27.7623 139.234 25.6475C139.234 24.0168 139.579 22.5876 140.267 21.3721L140.408 21.1318L140.411 21.1279C141.144 19.9159 142.116 18.879 143.303 18.0459L143.543 17.8828L143.547 17.8799C144.848 17.0002 146.345 16.3508 148.064 15.9043L148.065 15.9053C149.775 15.4744 151.536 15.25 153.351 15.25Z" stroke="white"/>
<path d="M189.554 15.25C191.234 15.25 192.886 15.4344 194.523 15.8154L195.224 15.9912C196.857 16.4286 198.322 17.0225 199.646 17.793L200.206 18.1338C201.571 19.0068 202.678 20.0854 203.558 21.3867L203.73 21.6494C204.538 22.9145 204.991 24.3498 205.107 25.9941H197.703C197.538 25.438 197.286 24.9303 196.92 24.4795L196.717 24.2461C196.181 23.6784 195.568 23.2072 194.866 22.8135C194.166 22.4206 193.388 22.1201 192.553 21.9502H192.554C191.726 21.7644 190.885 21.6914 190.071 21.6914C189.351 21.6914 188.629 21.7624 187.905 21.917L187.596 21.9883L187.593 21.9893C186.89 22.167 186.246 22.4038 185.668 22.7168L185.424 22.8555C184.856 23.1956 184.39 23.6133 184.016 24.0938L183.86 24.3037L183.856 24.3105C183.494 24.8473 183.294 25.4562 183.247 26.125L183.2 26.1484V26.459C183.2 27.6994 183.923 28.6559 185.16 29.2979V29.2988C186.177 29.8412 187.409 30.3351 188.834 30.8076L189.457 31.0088C190.299 31.2744 191.181 31.5409 192.101 31.8105L194.967 32.6357C196.915 33.1908 198.718 33.9174 200.357 34.8311C201.88 35.6792 203.168 36.7339 204.213 37.9932L204.419 38.248C205.46 39.5701 206.008 41.3052 206.008 43.4404C206.008 45.1183 205.648 46.5654 204.93 47.8125L204.781 48.0596C203.998 49.3073 202.991 50.3614 201.743 51.2109L201.49 51.3779C200.286 52.1513 198.918 52.7599 197.383 53.1992L196.715 53.377C194.896 53.8263 193.044 54.0674 191.124 54.0674C189.441 54.0674 187.664 53.8817 185.936 53.5L185.198 53.3252L185.193 53.3242L184.473 53.1309C183.051 52.7219 181.748 52.1707 180.557 51.4844L179.97 51.1299C178.534 50.2214 177.361 49.1067 176.444 47.8008L176.264 47.5371C175.425 46.2717 174.955 44.7755 174.838 43.0586H182.255C182.45 43.6542 182.736 44.2016 183.119 44.6895L183.326 44.9365C183.89 45.5709 184.585 46.0817 185.397 46.4932V46.4941C186.088 46.8514 186.836 47.1384 187.644 47.3291L187.993 47.4053C188.91 47.5865 189.836 47.6963 190.785 47.6963C191.61 47.6963 192.398 47.6265 193.172 47.4727L193.503 47.4014C194.376 47.1995 195.161 46.9191 195.861 46.4961L195.86 46.4951C196.548 46.0976 197.119 45.6161 197.558 45.0254C198.018 44.4051 198.245 43.6996 198.245 42.876C198.245 41.6338 197.52 40.679 196.29 40.0039C195.129 39.3668 193.688 38.7732 191.988 38.2373H191.987C191.148 37.9637 190.268 37.6856 189.352 37.4014L186.486 36.5254C184.781 36.0094 183.187 35.3615 181.715 34.583L181.091 34.2412C179.568 33.3768 178.278 32.3059 177.231 31.043L177.025 30.7871C175.983 29.4634 175.438 27.7623 175.438 25.6475C175.438 24.0168 175.782 22.5876 176.47 21.3721L176.611 21.1318L176.614 21.1279C177.347 19.9159 178.319 18.879 179.506 18.0459L179.746 17.8828L179.75 17.8799C181.051 17.0002 182.549 16.3508 184.268 15.9043L184.269 15.9053C185.978 15.4744 187.739 15.25 189.554 15.25Z" stroke="white"/>
<path d="M240.933 15.6094V22.2627H220.962V31.3213H234.829V38.0449H220.962V46.0332H220.227L221.093 46.8887L221.11 46.9062L221.962 47.748V47.0332H241.718V53.7568H212.664V15.6094H240.933Z" stroke="white"/>
<path d="M282.126 15.6094V22.2627H268.313V53.7393H260.033V22.2627H246.273V15.6094H282.126Z" stroke="white"/>
<path d="M330.255 30.1035C330.413 30.1596 330.641 30.2404 330.916 30.3389C331.466 30.5358 332.209 30.8037 332.974 31.0869C333.739 31.3701 334.526 31.6689 335.17 31.9277C335.492 32.0571 335.777 32.176 336.005 32.2783C336.194 32.363 336.34 32.438 336.437 32.4941L336.428 32.5039L336.476 32.5391C337.144 33.0205 337.303 33.954 336.87 34.5889C336.376 35.2399 335.417 35.3957 334.764 34.9727C334.596 34.8514 334.218 34.4787 333.743 33.9814C333.27 33.4857 332.703 32.8708 332.157 32.2715C331.612 31.6721 331.088 31.0874 330.7 30.6533C330.506 30.4364 330.347 30.2571 330.235 30.1318C330.219 30.1135 330.204 30.0961 330.189 30.0801C330.21 30.0873 330.232 30.0952 330.255 30.1035Z" stroke="white" stroke-width="0.1"/>
<path d="M335.587 32.9434C336.039 32.9434 336.402 33.3005 336.402 33.7354C336.402 34.1704 336.04 34.5273 335.587 34.5273C335.134 34.5272 334.771 34.1703 334.771 33.7354C334.772 33.3006 335.134 32.9435 335.587 32.9434Z" stroke="white" stroke-width="0.2"/>
<path d="M334.978 13.6016C338.584 13.6016 341.893 14.4331 344.893 16.1016H344.892C347.927 17.77 350.309 20.0955 352.029 23.0713H352.028C353.786 26.0502 354.661 29.4054 354.661 33.124C354.661 36.3734 353.986 39.3632 352.632 42.0859L352.633 42.0869C351.394 44.6116 349.683 46.7372 347.505 48.4609L355.398 57.8652L356.089 58.6865H343.704L343.555 58.4863L338.931 52.3232C337.584 52.572 336.267 52.6992 334.978 52.6992C331.371 52.6992 328.045 51.8675 325.011 50.2002L325.009 50.1982C322.01 48.5304 319.613 46.2078 317.823 43.2373L317.819 43.2314C316.062 40.2176 315.187 36.8442 315.187 33.124C315.187 29.4038 316.062 26.0472 317.821 23.0674L317.823 23.0635L318.166 22.5137C319.915 19.8048 322.198 17.6652 325.009 16.1016L325.011 16.1006L325.583 15.7979C328.462 14.3326 331.596 13.6016 334.978 13.6016ZM311.114 14.1318V54.8066H300.977V14.1318H311.114ZM334.978 22.8145C332.067 22.8145 329.784 23.743 328.075 25.5703C326.401 27.3984 325.538 29.8969 325.538 33.124C325.538 36.3113 326.398 38.8115 328.074 40.6768H328.075C329.784 42.5041 332.067 43.4326 334.978 43.4326C337.848 43.4325 340.092 42.4899 341.766 40.6309L341.77 40.6279L342.081 40.2705C343.591 38.4474 344.363 36.0793 344.363 33.124C344.363 29.9344 343.483 27.4527 341.772 25.623L341.766 25.6162C340.092 23.7573 337.847 22.8145 334.978 22.8145Z" stroke="white"/>
<path d="M72.5566 50.0986C72.5566 52.0296 71.573 53.8436 69.957 54.9131L69.626 55.1172H69.625L44.0146 69.7246C42.1932 70.7575 39.9561 70.7578 38.1348 69.7246H38.1357L12.5254 55.1172H12.5244C10.7123 54.0851 9.59375 52.1654 9.59375 50.0986V48.5361C12.8086 48.9631 16.5523 49.1151 20.7021 48.9814L20.7012 48.9805C20.8782 48.9765 21.0575 48.9681 21.2275 48.959C21.2986 48.9552 21.3683 48.9525 21.4365 48.9492C25.5114 55.9159 33.2608 60.4756 41.9541 60.1387L42.4346 60.1201V60.1045C50.0948 59.6466 56.643 55.4616 60.3936 49.4219C64.1626 48.6083 69.3187 46.9691 72.5566 45.8828V50.0986ZM38.8564 62.0771C37.4235 62.0772 36.2472 63.229 36.2471 64.6543C36.2471 66.0797 37.4234 67.2314 38.8564 67.2314C40.282 67.2314 41.459 66.0872 41.459 64.6543C41.4588 63.2227 40.2906 62.0771 38.8564 62.0771ZM18.3438 51.3418C17.4394 51.3419 16.6875 52.061 16.6875 52.9775C16.6876 53.8897 17.4352 54.62 18.3438 54.6201C19.2524 54.6201 19.9999 53.8898 20 52.9775C20 52.061 19.2481 51.3418 18.3438 51.3418ZM65.4961 49.376C64.675 49.376 63.9971 50.0198 63.9971 50.8555C63.9971 51.6887 64.68 52.3418 65.4961 52.3418C66.3195 52.3417 66.9873 51.6738 66.9873 50.8555C66.9873 50.0322 66.3146 49.3761 65.4961 49.376Z" stroke="white"/>
<path d="M38.1436 1.27539C39.9652 0.241973 42.2028 0.24201 44.0244 1.27539V1.27441L69.6348 15.8818V15.8828C71.4468 16.9148 72.5653 18.8338 72.5654 20.9004V21.6318C68.2471 20.637 62.4441 20.3154 55.7783 20.7021C51.7304 17.2914 46.4573 15.2627 40.751 15.3486L40.1895 15.3633C32.8386 15.6441 26.4451 19.3599 22.5215 24.8877C22.3462 25.1287 22.1682 25.3803 21.9971 25.6416L21.9814 25.665L21.9688 25.6904L21.8174 25.9297C21.599 26.2611 21.3981 26.6124 21.2119 26.9434C21.1706 27.0127 21.1312 27.0825 21.0938 27.1523L20.9922 27.3516C20.8729 27.5873 20.7529 27.8267 20.6318 28.0732C20.5494 28.2226 20.4775 28.3809 20.4209 28.5068C20.3095 28.7491 20.1919 29.027 20.0889 29.2578L20.083 29.2705C18.8924 32.147 18.2855 35.3202 18.416 38.6289L18.417 38.6436L18.418 38.6572C18.4316 38.7983 18.4387 38.9495 18.4463 39.1152L18.4609 39.4346L18.7578 39.5547C23.5181 41.4889 31.4795 42.5863 40.4531 42.3281L41.3252 42.2998C50.5634 41.935 58.6992 40.2227 63.458 37.8867L63.7373 37.749V37.4375L63.7295 36.8604C63.5988 33.5973 62.7615 30.5154 61.3711 27.7676L61.3662 27.7578L61.3604 27.748L61.2617 27.5596L61.1426 27.333C60.961 27.0101 60.781 26.6769 60.5928 26.3496L60.5703 26.3105L60.5518 26.2891C60.5504 26.2866 60.5491 26.2832 60.5469 26.2793C60.5417 26.2701 60.5301 26.2492 60.5186 26.2295C60.5104 26.2157 60.4991 26.1995 60.4873 26.1816H60.4883C60.2488 25.7897 59.9943 25.4059 59.7334 25.0361C59.7161 25.0039 59.7007 24.9796 59.6914 24.9658C59.6897 24.9633 59.6872 24.9604 59.6855 24.958L59.6787 24.9434L59.6562 24.9121L59.1924 24.2822C59.337 24.2996 59.4809 24.3166 59.625 24.334V24.335L60.5254 24.4463L60.5322 24.4473C60.7665 24.473 60.9998 24.5002 61.2314 24.5303L61.9199 24.6289L61.9287 24.6309C62.1929 24.6682 62.4475 24.7042 62.6934 24.7471L62.7031 24.748L62.7139 24.75C63.0959 24.8008 63.4641 24.8648 63.8496 24.9258V24.9248C64.1293 24.9721 64.3657 25.0066 64.6191 25.0566L64.6289 25.0576L64.6377 25.0596C65.0517 25.1253 65.4579 25.1984 65.8477 25.2783L65.8555 25.2793L65.8633 25.2812C65.9484 25.2959 66.0318 25.3104 66.1162 25.3252C66.1934 25.3387 66.2719 25.3515 66.3516 25.3652V25.3662C66.8791 25.4812 67.3591 25.5716 67.8398 25.6885V25.6895C67.9062 25.7058 67.97 25.7196 68.0273 25.7324L68.1934 25.7705L68.2031 25.7734C68.7217 25.8906 69.2343 26.0142 69.7422 26.1396V26.1406C70.2861 26.2805 70.7979 26.42 71.3076 26.5732V26.5713C71.3457 26.5846 71.3784 26.5942 71.4033 26.6006V26.6016C71.807 26.7248 72.1918 26.8435 72.5654 26.9629V26.9668L72.9072 27.0801C75.6539 27.9945 77.8232 29.0526 79.3096 30.207C80.7059 31.2916 81.4475 32.4172 81.5742 33.5508L81.5908 33.7773V33.7783C81.642 35.0235 80.9474 36.3235 79.4482 37.6357C77.9537 38.9439 75.7237 40.2042 72.8779 41.3584L72.8691 41.3623L72.8613 41.3652C71.7027 41.884 68.9726 42.6887 66.4873 43.3721C65.2542 43.7111 64.0956 44.0164 63.2451 44.2373C62.8201 44.3477 62.4721 44.4365 62.2305 44.498C62.1097 44.5288 62.0151 44.5532 61.9512 44.5693C61.9194 44.5774 61.8952 44.5838 61.8789 44.5879C61.8753 44.5888 61.8719 44.5891 61.8691 44.5898C56.2821 45.7796 49.8286 46.6016 42.9092 46.9434L41.5186 47.0049C34.4824 47.2752 27.8388 47.0064 22.0322 46.3027L20.8818 46.1562L20.877 46.1553L20.0195 46.0312L20.0098 46.0303L19.0312 45.8906L19.0215 45.8896L18.0986 45.7354L18.0898 45.7344L17.583 45.6504L17.0625 45.5635C16.7599 45.5096 16.5314 45.4615 16.2178 45.4043H16.2188C15.7636 45.3158 15.3302 45.2268 14.8945 45.1377H14.8936L13.793 44.8955C13.6482 44.8581 13.5025 44.8237 13.3672 44.792C13.2242 44.7585 13.0916 44.7276 12.9668 44.6934L12.9531 44.6895L12.9404 44.6865L12.0488 44.4678H12.0498C11.7963 44.4031 11.6546 44.3569 11.3828 44.2852H11.3838C7.98259 43.3391 5.25863 42.1986 3.38184 40.9238C1.61174 39.7214 0.674694 38.4573 0.522461 37.1895L0.501953 36.9365V36.6992C0.544856 35.5107 1.25048 34.2807 2.66602 33.0439C4.17147 31.7286 6.41727 30.4647 9.28906 29.3105L9.60254 29.1846V20.9004C9.60267 18.9695 10.5863 17.1553 12.2021 16.0859L12.5332 15.8828L12.5342 15.8818L38.1426 1.27441L38.1436 1.27539ZM16.1758 19.1543C15.0836 19.1543 14.2041 20.0291 14.2041 21.1162C14.2042 22.2032 15.0837 23.0771 16.1758 23.0771C17.2678 23.077 18.1473 22.2031 18.1475 21.1162C18.1475 20.0292 17.2679 19.1544 16.1758 19.1543ZM57.2383 11.958C56.277 11.958 55.4844 12.733 55.4844 13.6973C55.4845 14.6634 56.2866 15.4355 57.2383 15.4355C58.1939 15.4355 58.9843 14.6595 58.9844 13.6973C58.9844 12.7349 58.1939 11.958 57.2383 11.958ZM30.9062 9.37598C29.729 9.37623 28.7628 10.3128 28.7627 11.501C28.7627 12.6833 29.723 13.6404 30.9062 13.6406C32.0912 13.6406 33.0508 12.6745 33.0508 11.501C33.0507 10.3216 32.0852 9.37598 30.9062 9.37598ZM43.3633 5.45215C41.8219 5.45215 40.5881 6.68086 40.5879 8.19922C40.5879 9.71994 41.8389 10.9473 43.3633 10.9473C44.8853 10.9471 46.1377 9.7368 46.1377 8.19922C46.1374 6.66186 44.8852 5.45233 43.3633 5.45215Z" stroke="white"/>
<path d="M41.2939 24.6484C44.1107 24.6522 46.8172 25.6907 48.8936 27.5488L49.2998 27.9307C51.2896 29.8968 52.4632 32.5178 52.6055 35.2793L52.6201 35.834C52.6199 37.8274 51.9634 39.9796 50.9404 42.1152C49.9193 44.2469 48.5476 46.3315 47.1533 48.1807C44.3784 51.8609 41.544 54.5678 41.2939 54.8047C41.0417 54.5657 38.2092 51.8592 35.4355 48.1807C34.0413 46.3315 32.6696 44.247 31.6484 42.1152C30.6255 39.9796 29.9689 37.8274 29.9688 35.834C29.9725 33.0558 31.0214 30.3842 32.9014 28.333L33.2881 27.9307C35.4106 25.8334 38.2897 24.6526 41.2939 24.6484ZM43.5576 30.4229C42.5443 30.0081 41.4362 29.8804 40.3564 30.0518L40.1406 30.0898C39.0652 30.3012 38.0711 30.8038 37.2686 31.54L37.1104 31.6904C36.282 32.5089 35.7172 33.5525 35.4883 34.6895C35.2737 35.7554 35.3632 36.8582 35.7451 37.874L35.8262 38.0762C36.275 39.1466 37.0345 40.0605 38.0078 40.7031C38.9203 41.3056 39.9824 41.6446 41.0752 41.6846L41.2939 41.6885H41.2949C42.7646 41.6875 44.1787 41.1465 45.2646 40.1748L45.4775 39.9746C46.588 38.8772 47.2129 37.3875 47.2139 35.833L47.21 35.6162C47.1721 34.605 46.8706 33.6206 46.334 32.7598L46.2148 32.5781C45.6043 31.6753 44.7536 30.9592 43.7588 30.5088L43.5576 30.4229Z" stroke="white"/>
</g>
</svg>
