<svg width="95" height="92" viewBox="0 0 95 92" fill="none" xmlns="http://www.w3.org/2000/svg">
<path fill-rule="evenodd" clip-rule="evenodd" d="M52.9698 0.0615313C65.7646 0.898635 75.7052 10.9252 83.2991 21.2547C89.7133 29.9795 89.7386 40.8069 90.8434 51.5784C92.1607 64.4221 99.8519 80.2207 90.2305 88.8321C80.5714 97.4772 65.9315 85.7136 52.9698 85.4762C40.5053 85.2478 27.5494 94.2116 17.05 87.4914C5.44716 80.065 -0.25376 65.3501 0.0086617 51.5784C0.267144 38.0135 8.66689 26.4692 18.3931 17.0083C27.9572 7.70495 39.6545 -0.809623 52.9698 0.0615313Z" fill="#EDF9F4"/>
<path d="M15.8125 18.8125H70.1875V52.5625H15.8125V18.8125Z" fill="#7ADDB2"/>
<path d="M44.1644 18.8125H15.8125V52.5625H70.1875V43.3478L44.1644 18.8125Z" fill="#6BCFA4"/>
<path d="M37.375 44.125C33.894 44.125 30.5556 42.7422 28.0942 40.2808C25.6328 37.8194 24.25 34.481 24.25 31V18.8125H15.8125V52.5625H70.1875V44.125H37.375Z" fill="#4DC591"/>
<path d="M23.3125 52.5625H27.0625V58.1875H23.3125V52.5625Z" fill="#D0D8DA"/>
<path d="M58.9375 52.5625H62.6875V58.1875H58.9375V52.5625Z" fill="#D0D8DA"/>
<path d="M19.5625 22.5625H38.3125V41.3125H19.5625V22.5625Z" fill="#D0D8DA"/>
<path d="M25.1875 35.6875V28.1875L32.6875 31.9375L25.1875 35.6875Z" fill="#F9E109"/>
<path d="M24.25 31V22.5625H19.5625V41.3125H29.2731C27.708 40.0876 26.4423 38.5225 25.5719 36.7357C24.7016 34.9489 24.2495 32.9875 24.25 31Z" fill="#93999A"/>
<path d="M58.9375 52.5625V58.1875H60.8125V56.3125C60.8125 55.8152 61.01 55.3383 61.3617 54.9867C61.7133 54.635 62.1902 54.4375 62.6875 54.4375V52.5625H58.9375Z" fill="#93999A"/>
<path d="M23.3125 52.5625V58.1875H25.1875V56.3125C25.1875 55.8152 25.385 55.3383 25.7367 54.9867C26.0883 54.635 26.5652 54.4375 27.0625 54.4375V52.5625H23.3125Z" fill="#93999A"/>
<path d="M29.875 59.125H20.5C20.2514 59.125 20.0129 59.0262 19.8371 58.8504C19.6613 58.6746 19.5625 58.4361 19.5625 58.1875C19.5625 57.9389 19.6613 57.7004 19.8371 57.5246C20.0129 57.3488 20.2514 57.25 20.5 57.25H29.875C30.1236 57.25 30.3621 57.3488 30.5379 57.5246C30.7137 57.7004 30.8125 57.9389 30.8125 58.1875C30.8125 58.4361 30.7137 58.6746 30.5379 58.8504C30.3621 59.0262 30.1236 59.125 29.875 59.125Z" fill="#D0D8DA"/>
<path d="M65.5 59.125H56.125C55.8764 59.125 55.6379 59.0262 55.4621 58.8504C55.2863 58.6746 55.1875 58.4361 55.1875 58.1875C55.1875 57.9389 55.2863 57.7004 55.4621 57.5246C55.6379 57.3488 55.8764 57.25 56.125 57.25H65.5C65.7486 57.25 65.9871 57.3488 66.1629 57.5246C66.3387 57.7004 66.4375 57.9389 66.4375 58.1875C66.4375 58.4361 66.3387 58.6746 66.1629 58.8504C65.9871 59.0262 65.7486 59.125 65.5 59.125Z" fill="#D0D8DA"/>
<path d="M29.875 49.75H25.1875C24.9389 49.75 24.7004 49.6512 24.5246 49.4754C24.3488 49.2996 24.25 49.0611 24.25 48.8125V45.0625C24.25 44.8139 24.3488 44.5754 24.5246 44.3996C24.7004 44.2238 24.9389 44.125 25.1875 44.125C25.4361 44.125 25.6746 44.2238 25.8504 44.3996C26.0262 44.5754 26.125 44.8139 26.125 45.0625V47.875H29.875C30.1236 47.875 30.3621 47.9738 30.5379 48.1496C30.7137 48.3254 30.8125 48.5639 30.8125 48.8125C30.8125 49.0611 30.7137 49.2996 30.5379 49.4754C30.3621 49.6512 30.1236 49.75 29.875 49.75Z" fill="#E59730"/>
<path d="M66.3943 25.4183C66.2712 25.4186 66.1492 25.3945 66.0354 25.3473C65.9216 25.3002 65.8183 25.2309 65.7315 25.1436C64.6756 24.0903 63.2451 23.4988 61.7537 23.4988C60.2623 23.4988 58.8318 24.0903 57.7759 25.1436C57.6894 25.2331 57.586 25.3045 57.4716 25.3537C57.3572 25.4028 57.2342 25.4287 57.1097 25.4298C56.9852 25.4308 56.8618 25.4071 56.7466 25.36C56.6313 25.3128 56.5267 25.2432 56.4386 25.1552C56.3506 25.0672 56.281 24.9625 56.2339 24.8473C56.1867 24.7321 56.163 24.6086 56.1641 24.4841C56.1652 24.3597 56.191 24.2366 56.2402 24.1223C56.2893 24.0079 56.3607 23.9044 56.4503 23.818C57.858 22.4136 59.7653 21.625 61.7537 21.625C63.7421 21.625 65.6494 22.4136 67.0571 23.818C67.1882 23.9491 67.2775 24.1161 67.3136 24.2979C67.3498 24.4798 67.3312 24.6682 67.2603 24.8395C67.1893 25.0108 67.0692 25.1572 66.9151 25.2602C66.7609 25.3632 66.5797 25.4182 66.3943 25.4183Z" fill="#F9E109"/>
<path d="M63.7384 28.0698C63.4898 28.0697 63.2514 27.9709 63.0756 27.7951C62.7185 27.454 62.2437 27.2637 61.75 27.2637C61.2562 27.2637 60.7814 27.454 60.4243 27.7951C60.3379 27.8846 60.2344 27.9561 60.12 28.0052C60.0056 28.0543 59.8826 28.0802 59.7581 28.0813C59.6337 28.0824 59.5102 28.0586 59.395 28.0115C59.2798 27.9644 59.1751 27.8947 59.0871 27.8067C58.9991 27.7187 58.9295 27.614 58.8823 27.4988C58.8352 27.3836 58.8115 27.2601 58.8125 27.1357C58.8136 27.0112 58.8395 26.8882 58.8886 26.7738C58.9377 26.6594 59.0092 26.556 59.0987 26.4695C59.8127 25.7871 60.7623 25.4062 61.75 25.4062C62.7376 25.4062 63.6872 25.7871 64.4012 26.4695C64.5323 26.6006 64.6215 26.7676 64.6577 26.9494C64.6938 27.1313 64.6753 27.3197 64.6043 27.491C64.5334 27.6623 64.4133 27.8087 64.2591 27.9117C64.105 28.0147 63.9238 28.0697 63.7384 28.0698Z" fill="#F9E109"/>
<path d="M61.75 31C62.2678 31 62.6875 30.5803 62.6875 30.0625C62.6875 29.5447 62.2678 29.125 61.75 29.125C61.2322 29.125 60.8125 29.5447 60.8125 30.0625C60.8125 30.5803 61.2322 31 61.75 31Z" fill="#F9E109"/>
<path d="M61.75 49.75H56.125C55.8764 49.75 55.6379 49.6512 55.4621 49.4754C55.2863 49.2996 55.1875 49.0611 55.1875 48.8125C55.1875 48.5639 55.2863 48.3254 55.4621 48.1496C55.6379 47.9738 55.8764 47.875 56.125 47.875H60.8125V33.8125C60.8125 33.5639 60.9113 33.3254 61.0871 33.1496C61.2629 32.9738 61.5014 32.875 61.75 32.875C61.9986 32.875 62.2371 32.9738 62.4129 33.1496C62.5887 33.3254 62.6875 33.5639 62.6875 33.8125V48.8125C62.6875 49.0611 62.5887 49.2996 62.4129 49.4754C62.2371 49.6512 61.9986 49.75 61.75 49.75Z" fill="#F9E109"/>
<path d="M62.6875 44.1237V36.2759L60.8125 34.5078V44.1237H62.6875Z" fill="#FCBC04"/>
<path d="M60.8125 47.875H56.125C55.8764 47.875 55.6379 47.9738 55.4621 48.1496C55.2863 48.3254 55.1875 48.5639 55.1875 48.8125C55.1875 49.0611 55.2863 49.2996 55.4621 49.4754C55.6379 49.6512 55.8764 49.75 56.125 49.75H61.75C61.9986 49.75 62.2371 49.6512 62.4129 49.4754C62.5887 49.2996 62.6875 49.0611 62.6875 48.8125V44.125H60.8125V47.875Z" fill="#E59730"/>
<path d="M49.5625 45.0625H36.4375C34.8842 45.0625 33.625 46.3217 33.625 47.875V70.375C33.625 71.9283 34.8842 73.1875 36.4375 73.1875H49.5625C51.1158 73.1875 52.375 71.9283 52.375 70.375V47.875C52.375 46.3217 51.1158 45.0625 49.5625 45.0625Z" fill="#D0D8DA"/>
<path d="M37.7772 45.0625H36.4375C35.6916 45.0625 34.9762 45.3588 34.4488 45.8863C33.9213 46.4137 33.625 47.1291 33.625 47.875V70.375C33.625 71.1209 33.9213 71.8363 34.4488 72.3637C34.9762 72.8912 35.6916 73.1875 36.4375 73.1875H49.5625C50.3084 73.1875 51.0238 72.8912 51.5512 72.3637C52.0787 71.8363 52.375 71.1209 52.375 70.375V65.5L37.7772 45.0625Z" fill="#93999A"/>
<path d="M37.375 59.125V45.0625H36.4375C35.6916 45.0625 34.9762 45.3588 34.4488 45.8863C33.9213 46.4137 33.625 47.1291 33.625 47.875V70.375C33.625 71.1209 33.9213 71.8363 34.4488 72.3637C34.9762 72.8912 35.6916 73.1875 36.4375 73.1875H49.5625C50.3084 73.1875 51.0238 72.8912 51.5512 72.3637C52.0787 71.8363 52.375 71.1209 52.375 70.375H48.625C45.6413 70.375 42.7798 69.1897 40.67 67.08C38.5603 64.9702 37.375 62.1087 37.375 59.125Z" fill="#656B76"/>
<path d="M47.6369 58.2346C47.5138 58.235 47.3918 58.2109 47.278 58.1637C47.1642 58.1166 47.0609 58.0473 46.9741 57.96C46.4518 57.4375 45.8316 57.0231 45.1491 56.7404C44.4666 56.4576 43.7351 56.3121 42.9963 56.3121C42.2575 56.3121 41.526 56.4576 40.8435 56.7404C40.161 57.0231 39.5408 57.4375 39.0185 57.96C38.8417 58.1307 38.6048 58.2252 38.359 58.2231C38.1132 58.221 37.8781 58.1224 37.7043 57.9485C37.5305 57.7747 37.4319 57.5396 37.4297 57.2938C37.4276 57.048 37.5221 56.8111 37.6929 56.6343C38.3893 55.9379 39.2161 55.3854 40.1261 55.0084C41.036 54.6315 42.0113 54.4375 42.9963 54.4375C43.9812 54.4375 44.9565 54.6315 45.8665 55.0084C46.7765 55.3854 47.6033 55.9379 48.2997 56.6343C48.4308 56.7654 48.5201 56.9325 48.5562 57.1143C48.5924 57.2961 48.5738 57.4846 48.5029 57.6559C48.4319 57.8272 48.3118 57.9736 48.1577 58.0766C48.0035 58.1796 47.8223 58.2346 47.6369 58.2346Z" fill="#F9E109"/>
<path d="M44.9884 60.8901C44.7398 60.89 44.5014 60.7912 44.3256 60.6154C43.9685 60.2743 43.4937 60.084 43 60.084C42.5062 60.084 42.0314 60.2743 41.6743 60.6154C41.5879 60.705 41.4844 60.7764 41.37 60.8255C41.2556 60.8746 41.1326 60.9005 41.0081 60.9016C40.8837 60.9027 40.7602 60.8789 40.645 60.8318C40.5298 60.7847 40.4251 60.7151 40.3371 60.627C40.2491 60.539 40.1795 60.4343 40.1323 60.3191C40.0852 60.2039 40.0615 60.0805 40.0625 59.956C40.0636 59.8315 40.0895 59.7085 40.1386 59.5941C40.1877 59.4797 40.2592 59.3763 40.3487 59.2898C41.0627 58.6074 42.0123 58.2266 43 58.2266C43.9876 58.2266 44.9372 58.6074 45.6512 59.2898C45.7823 59.4209 45.8715 59.5879 45.9077 59.7698C45.9438 59.9516 45.9253 60.1401 45.8543 60.3113C45.7834 60.4826 45.6633 60.629 45.5091 60.732C45.355 60.8351 45.1738 60.8901 44.9884 60.8901Z" fill="#FCBC04"/>
<path d="M43 63.8125C43.5178 63.8125 43.9375 63.3928 43.9375 62.875C43.9375 62.3572 43.5178 61.9375 43 61.9375C42.4822 61.9375 42.0625 62.3572 42.0625 62.875C42.0625 63.3928 42.4822 63.8125 43 63.8125Z" fill="#FCBC04"/>
<path d="M44.875 70.375H41.125C40.8764 70.375 40.6379 70.2762 40.4621 70.1004C40.2863 69.9246 40.1875 69.6861 40.1875 69.4375C40.1875 69.1889 40.2863 68.9504 40.4621 68.7746C40.6379 68.5988 40.8764 68.5 41.125 68.5H44.875C45.1236 68.5 45.3621 68.5988 45.5379 68.7746C45.7137 68.9504 45.8125 69.1889 45.8125 69.4375C45.8125 69.6861 45.7137 69.9246 45.5379 70.1004C45.3621 70.2762 45.1236 70.375 44.875 70.375Z" fill="#5DE9AC"/>
<path d="M37.375 49.75C37.8928 49.75 38.3125 49.3303 38.3125 48.8125C38.3125 48.2947 37.8928 47.875 37.375 47.875C36.8572 47.875 36.4375 48.2947 36.4375 48.8125C36.4375 49.3303 36.8572 49.75 37.375 49.75Z" fill="#4DC591"/>
<path d="M41.125 49.75C41.6428 49.75 42.0625 49.3303 42.0625 48.8125C42.0625 48.2947 41.6428 47.875 41.125 47.875C40.6072 47.875 40.1875 48.2947 40.1875 48.8125C40.1875 49.3303 40.6072 49.75 41.125 49.75Z" fill="#4DC591"/>
<path d="M37.6929 56.6341C37.5221 56.8109 37.4276 57.0477 37.4297 57.2935C37.4319 57.5393 37.5305 57.7745 37.7043 57.9483C37.8781 58.1221 38.1132 58.2207 38.359 58.2228C38.6048 58.225 38.8417 58.1305 39.0185 57.9597C39.5408 57.4373 40.161 57.0229 40.8435 56.7401C41.526 56.4574 42.2575 56.3119 42.9963 56.3119C43.7351 56.3119 44.4666 56.4574 45.1491 56.7401C45.8316 57.0229 46.4518 57.4373 46.9741 57.9597C46.9807 57.9663 46.9891 57.9682 46.9957 57.9747L44.5947 54.6128C44.0697 54.4977 43.5338 54.4389 42.9963 54.4375C42.011 54.4348 41.0349 54.6276 40.1246 55.0046C39.2142 55.3816 38.3877 55.9355 37.6929 56.6341Z" fill="#FCBC04"/>
<path d="M40.1875 69.4375C40.1875 69.6861 40.2863 69.9246 40.4621 70.1004C40.6379 70.2762 40.8764 70.375 41.125 70.375H44.875C45.0256 70.3731 45.1735 70.3342 45.3055 70.2618C45.4376 70.1894 45.5499 70.0857 45.6325 69.9597C44.488 69.6473 43.4007 69.1546 42.4112 68.5H41.125C40.8764 68.5 40.6379 68.5988 40.4621 68.7746C40.2863 68.9504 40.1875 69.1889 40.1875 69.4375Z" fill="#4DC591"/>
<path d="M36.4375 48.8125C36.4375 49.0611 36.5363 49.2996 36.7121 49.4754C36.8879 49.6512 37.1264 49.75 37.375 49.75V47.875C37.1264 47.875 36.8879 47.9738 36.7121 48.1496C36.5363 48.3254 36.4375 48.5639 36.4375 48.8125Z" fill="#4DC591"/>
<path d="M40.2466 48.5234C40.2111 48.6171 40.1912 48.7159 40.1875 48.8159C40.1875 49.0646 40.2863 49.303 40.4621 49.4789C40.6379 49.6547 40.8764 49.7534 41.125 49.7534L40.2466 48.5234Z" fill="#45C18C"/>
<path d="M42.0625 22.5625H51.4375V28.1875H42.0625V22.5625Z" fill="#F9E109"/>
<path d="M42.0625 31.9375H51.4375V37.5625H42.0625V31.9375Z" fill="#FCBC04"/>
<path d="M48.1422 22.5625H42.0625V28.1875H51.4375V25.6694L48.1422 22.5625Z" fill="#FCBC04"/>
<path d="M46.75 35.6875C46.0041 35.6875 45.2887 35.3912 44.7613 34.8637C44.2338 34.3363 43.9375 33.6209 43.9375 32.875V31.9375H42.0625V37.5625H51.4375V35.6875H46.75Z" fill="#E59730"/>
<path d="M46.75 26.3125C46.0041 26.3125 45.2887 26.0162 44.7613 25.4887C44.2338 24.9613 43.9375 24.2459 43.9375 23.5V22.5625H42.0625V28.1875H51.4375V26.3125H46.75Z" fill="#E59730"/>
</svg>
