<svg width="80" height="92" viewBox="0 0 80 92" fill="none" xmlns="http://www.w3.org/2000/svg">
<path fill-rule="evenodd" clip-rule="evenodd" d="M43.9604 0.182862C57.5594 1.31909 70.0184 9.80186 77.0474 21.4475C82.9531 31.2323 78.4756 43.1142 76.6771 54.3883C75.2887 63.0918 73.7729 71.6381 67.978 78.2997C61.6987 85.5182 53.5513 91.8809 43.9604 91.9984C34.2884 92.117 26.4036 85.4789 19.344 78.8958C11.9577 72.008 5.87665 64.212 3.62776 54.3883C0.611798 41.2138 -3.26786 26.2697 4.81103 15.412C13.4808 3.76024 29.4465 -1.02981 43.9604 0.182862Z" fill="#EDF9F4"/>
<path d="M40.0019 29.125L45.6372 40.5438L58.2381 42.3747L49.12 51.2622L51.2725 63.8125L40.0019 57.8875L28.7313 63.8125L30.8837 51.2622L21.7656 42.3747L34.3666 40.5438L40.0019 29.125Z" fill="#FFFA48"/>
<path d="M39.9981 29.125L40.0028 38.7034C40.0041 39.936 40.3092 41.1493 40.8911 42.2358C41.4729 43.3224 42.3136 44.2489 43.3388 44.9332C44.3639 45.6175 45.5419 46.0386 46.7686 46.1593C47.9952 46.28 49.2327 46.0965 50.3716 45.625L58.2344 42.3709L49.1162 51.2584L51.2687 63.8125L39.9981 57.8875L28.7275 63.8125L30.8837 51.2622L21.7656 42.3747L34.3628 40.5438L39.9981 29.125Z" fill="#FCEA42"/>
<path d="M45.625 55.375V60.9625L40 58.0094L34.375 60.9625V55.375C34.375 54.3804 34.7701 53.4266 35.4734 52.7234C36.1766 52.0201 37.1304 51.625 38.125 51.625H41.875C42.8696 51.625 43.8234 52.0201 44.5266 52.7234C45.2299 53.4266 45.625 54.3804 45.625 55.375Z" fill="#6BCFA4"/>
<path d="M45.625 58.1875V60.9625L40 58.0094L34.375 60.9625V55.375C34.3738 54.717 34.5466 54.0704 34.8759 53.5007C35.2051 52.9311 35.6792 52.4586 36.25 52.1313V52.5625C36.2511 53.3376 36.4124 54.1042 36.7238 54.814C37.0351 55.5239 37.4898 56.1617 38.0594 56.6875L38.4906 54.1188L38.4719 54.1094C38.0969 53.8256 37.8497 53.4047 37.7847 52.9389C37.7196 52.4732 37.842 52.0006 38.125 51.625H41.4063V52.5625C41.4065 52.8706 41.3304 53.174 41.1848 53.4456C41.0393 53.7172 40.8287 53.9484 40.5719 54.1188L41.2469 58.15C41.4531 58.1687 41.6594 58.1875 41.875 58.1875H45.625Z" fill="#4DC591"/>
<path d="M38.125 49.75H41.875V52.5625H38.125V49.75Z" fill="#EFAD1B"/>
<path d="M37.1875 46H42.8125V48.8125C42.8125 49.5584 42.5162 50.2738 41.9887 50.8012C41.4613 51.3287 40.7459 51.625 40 51.625C39.2541 51.625 38.5387 51.3287 38.0113 50.8012C37.4838 50.2738 37.1875 49.5584 37.1875 48.8125V46Z" fill="#FDC741"/>
<path d="M37.1875 42.25H40C40.7459 42.25 41.4613 42.5463 41.9887 43.0738C42.5162 43.6012 42.8125 44.3166 42.8125 45.0625V46H37.1875V42.25Z" fill="#6BCFA4"/>
<path d="M39.0625 47.875C39.0625 48.6209 39.3588 49.3363 39.8863 49.8637C40.4137 50.3912 41.1291 50.6875 41.875 50.6875C41.9505 50.6906 42.0261 50.6843 42.1 50.6687C41.8403 50.971 41.518 51.213 41.1553 51.3782C40.7927 51.5433 40.3985 51.6275 40 51.625C39.2541 51.625 38.5387 51.3287 38.0113 50.8012C37.4838 50.2738 37.1875 49.5584 37.1875 48.8125V46H42.8125V46.9375H40C39.7514 46.9375 39.5129 47.0363 39.3371 47.2121C39.1613 47.3879 39.0625 47.6264 39.0625 47.875Z" fill="#EFAD1B"/>
<path d="M42.8125 45.0625V46H37.1875V42.25H38.125C38.125 42.9959 38.4213 43.7113 38.9488 44.2387C39.4762 44.7662 40.1916 45.0625 40.9375 45.0625H42.8125Z" fill="#4DC591"/>
<path d="M41.85 58.9844L40.0031 58.0094L38.1562 58.9844L39.0656 53.5H40.9406L41.85 58.9844Z" fill="#EF5350"/>
<path d="M41.1844 54.9531C40.8516 55.2267 40.4339 55.3759 40.0031 55.375C39.8479 55.3722 39.6936 55.3502 39.5437 55.3094L39.2156 57.2969C39.1508 57.6539 39.2034 58.0223 39.3656 58.3469L38.1562 58.9844L39.0656 53.5H40.9406L41.1844 54.9531Z" fill="#E53935"/>
<path d="M38.125 51.625H41.875V52.5625C41.875 53.0598 41.6775 53.5367 41.3258 53.8883C40.9742 54.24 40.4973 54.4375 40 54.4375C39.5027 54.4375 39.0258 54.24 38.6742 53.8883C38.3225 53.5367 38.125 53.0598 38.125 52.5625V51.625Z" fill="#FF7373"/>
<path d="M41.7062 53.3312C41.529 53.7202 41.2242 54.037 40.8423 54.229C40.4604 54.4211 40.0244 54.4769 39.6065 54.3871C39.1885 54.2974 38.8138 54.0676 38.5444 53.7358C38.2749 53.4039 38.127 52.99 38.125 52.5625V51.625H39.0625C39.064 52.1218 39.262 52.5979 39.6133 52.9492C39.9646 53.3005 40.4407 53.4985 40.9375 53.5C41.2032 53.5021 41.4659 53.4444 41.7062 53.3312Z" fill="#EF5350"/>
<path d="M61.5625 54.4375C62.3084 54.4375 63.0238 54.7338 63.5512 55.2613C64.0787 55.7887 64.375 56.5041 64.375 57.25V58.1875H58.75V57.25C58.75 56.5041 59.0463 55.7887 59.5738 55.2613C60.1012 54.7338 60.8166 54.4375 61.5625 54.4375Z" fill="#6BCFA4"/>
<path d="M59.6875 63.8125H63.4375C64.4321 63.8125 65.3859 64.2076 66.0891 64.9109C66.7924 65.6141 67.1875 66.5679 67.1875 67.5625V73.1875H55.9375V67.5625C55.9375 66.5679 56.3326 65.6141 57.0359 64.9109C57.7391 64.2076 58.6929 63.8125 59.6875 63.8125Z" fill="#6BCFA4"/>
<path d="M60.0372 66.2988L60.0531 66.3091L59.2188 71.3125L61.0938 73.1875L62.9688 71.3125L62.1344 66.3091C62.391 66.1379 62.6014 65.906 62.7469 65.6341C62.8924 65.3621 62.9686 65.0585 62.9688 64.75V63.8125H59.6875C59.4057 64.1891 59.2843 64.6619 59.3498 65.1277C59.4153 65.5935 59.6624 66.0145 60.0372 66.2988Z" fill="#4DC591"/>
<path d="M67.1875 70.3766V73.1891H55.9375V67.5641C55.9363 66.9061 56.1091 66.2595 56.4384 65.6898C56.7676 65.1201 57.2417 64.6477 57.8125 64.3203V64.7516C57.8125 66.2434 58.4051 67.6741 59.46 68.729C60.5149 69.7839 61.9457 70.3766 63.4375 70.3766H67.1875Z" fill="#4DC591"/>
<path d="M59.6875 61.9375H63.4375V64.75H59.6875V61.9375Z" fill="#EFAD1B"/>
<path d="M58.75 58.1875H64.375V61C64.375 61.7459 64.0787 62.4613 63.5512 62.9887C63.0238 63.5162 62.3084 63.8125 61.5625 63.8125C60.8166 63.8125 60.1012 63.5162 59.5738 62.9887C59.0463 62.4613 58.75 61.7459 58.75 61V58.1875Z" fill="#FCEA42"/>
<path d="M62.5 65.6875L63.4375 71.3125L61.5625 73.1875L59.6875 71.3125L60.625 65.6875H62.5Z" fill="#EF5350"/>
<path d="M63.4375 71.3125L61.5625 73.1875L59.6875 71.3125L60.625 65.6875H62.5L62.7437 67.1406C62.411 67.4142 61.9933 67.5634 61.5625 67.5625C61.4072 67.5597 61.2529 67.5377 61.1031 67.4969L60.775 69.4844C60.7168 69.8174 60.7566 70.1601 60.8897 70.4708C61.0227 70.7816 61.2432 71.047 61.5243 71.2347C61.8054 71.4225 62.135 71.5245 62.473 71.5283C62.811 71.5321 63.1428 71.4376 63.4281 71.2562L63.4375 71.3125Z" fill="#E53935"/>
<path d="M59.6875 63.8125H63.4375V64.75C63.4375 65.2473 63.24 65.7242 62.8883 66.0758C62.5367 66.4275 62.0598 66.625 61.5625 66.625C61.0652 66.625 60.5883 66.4275 60.2367 66.0758C59.885 65.7242 59.6875 65.2473 59.6875 64.75V63.8125Z" fill="#FF7373"/>
<path d="M63.2687 65.5187C63.0915 65.9077 62.7867 66.2245 62.4048 66.4165C62.0229 66.6086 61.5869 66.6644 61.169 66.5746C60.751 66.4849 60.3763 66.2551 60.1069 65.9233C59.8374 65.5914 59.6895 65.1775 59.6875 64.75V63.8125H60.625C60.6265 64.3093 60.8245 64.7854 61.1758 65.1367C61.5271 65.488 62.0032 65.686 62.5 65.6875C62.7657 65.6896 63.0284 65.6319 63.2687 65.5187Z" fill="#EF5350"/>
<path d="M60.625 60.0625C60.625 60.8084 60.9213 61.5238 61.4488 62.0512C61.9762 62.5787 62.6916 62.875 63.4375 62.875C63.513 62.8781 63.5886 62.8718 63.6625 62.8562C63.4028 63.1585 63.0805 63.4005 62.7178 63.5657C62.3552 63.7308 61.961 63.815 61.5625 63.8125C60.8166 63.8125 60.1012 63.5162 59.5738 62.9887C59.0463 62.4613 58.75 61.7459 58.75 61V58.1875H64.375V59.125H61.5625C61.3139 59.125 61.0754 59.2238 60.8996 59.3996C60.7238 59.5754 60.625 59.8139 60.625 60.0625Z" fill="#FDC741"/>
<path d="M64.375 57.25V58.1875H58.75V57.25C58.7483 56.838 58.8382 56.4307 59.0133 56.0578C59.1884 55.6848 59.4444 55.3555 59.7625 55.0938C59.9101 55.7085 60.2604 56.2557 60.7571 56.6469C61.2538 57.0381 61.8678 57.2506 62.5 57.25H64.375Z" fill="#4DC591"/>
<path d="M61.5625 19.75C62.3084 19.75 63.0238 20.0463 63.5512 20.5738C64.0787 21.1012 64.375 21.8166 64.375 22.5625V23.5H58.75V22.5625C58.75 21.8166 59.0463 21.1012 59.5738 20.5738C60.1012 20.0463 60.8166 19.75 61.5625 19.75Z" fill="#6BCFA4"/>
<path d="M59.6875 29.125H63.4375C64.4321 29.125 65.3859 29.5201 66.0891 30.2233C66.7924 30.9266 67.1875 31.8804 67.1875 32.875V38.5H55.9375V32.875C55.9375 31.8804 56.3326 30.9266 57.0359 30.2233C57.7391 29.5201 58.6929 29.125 59.6875 29.125Z" fill="#6BCFA4"/>
<path d="M60.0372 31.6113L60.0531 31.6216L59.2188 36.625L61.0938 38.5L62.9688 36.625L62.1344 31.6216C62.391 31.4504 62.6014 31.2185 62.7469 30.9466C62.8924 30.6746 62.9686 30.371 62.9688 30.0625V29.125H59.6875C59.4057 29.5016 59.2843 29.9744 59.3498 30.4402C59.4153 30.906 59.6624 31.327 60.0372 31.6113Z" fill="#4DC591"/>
<path d="M67.1875 35.6891V38.5016H55.9375V32.8766C55.9363 32.2186 56.1091 31.572 56.4384 31.0023C56.7676 30.4326 57.2417 29.9602 57.8125 29.6328V30.0641C57.8125 31.5559 58.4051 32.9866 59.46 34.0415C60.5149 35.0964 61.9457 35.6891 63.4375 35.6891H67.1875Z" fill="#4DC591"/>
<path d="M59.6875 27.25H63.4375V30.0625H59.6875V27.25Z" fill="#EFAD1B"/>
<path d="M58.75 23.5H64.375V26.3125C64.375 27.0584 64.0787 27.7738 63.5512 28.3012C63.0238 28.8287 62.3084 29.125 61.5625 29.125C60.8166 29.125 60.1012 28.8287 59.5738 28.3012C59.0463 27.7738 58.75 27.0584 58.75 26.3125V23.5Z" fill="#FCEA42"/>
<path d="M62.5 31L63.4375 36.625L61.5625 38.5L59.6875 36.625L60.625 31H62.5Z" fill="#EF5350"/>
<path d="M63.4375 36.625L61.5625 38.5L59.6875 36.625L60.625 31H62.5L62.7437 32.4531C62.411 32.7267 61.9933 32.8759 61.5625 32.875C61.4072 32.8722 61.2529 32.8502 61.1031 32.8094L60.775 34.7969C60.7168 35.1299 60.7566 35.4726 60.8897 35.7833C61.0227 36.0941 61.2432 36.3595 61.5243 36.5472C61.8054 36.735 62.135 36.837 62.473 36.8408C62.811 36.8446 63.1428 36.7501 63.4281 36.5688L63.4375 36.625Z" fill="#E53935"/>
<path d="M59.6875 29.125H63.4375V30.0625C63.4375 30.5598 63.24 31.0367 62.8883 31.3883C62.5367 31.74 62.0598 31.9375 61.5625 31.9375C61.0652 31.9375 60.5883 31.74 60.2367 31.3883C59.885 31.0367 59.6875 30.5598 59.6875 30.0625V29.125Z" fill="#FF7373"/>
<path d="M63.2687 30.8312C63.0915 31.2202 62.7867 31.537 62.4048 31.729C62.0229 31.9211 61.5869 31.9769 61.169 31.8871C60.751 31.7974 60.3763 31.5676 60.1069 31.2358C59.8374 30.9039 59.6895 30.49 59.6875 30.0625V29.125H60.625C60.6265 29.6218 60.8245 30.0979 61.1758 30.4492C61.5271 30.8005 62.0032 30.9985 62.5 31C62.7657 31.0021 63.0284 30.9444 63.2687 30.8312Z" fill="#EF5350"/>
<path d="M60.625 25.375C60.625 26.1209 60.9213 26.8363 61.4488 27.3637C61.9762 27.8912 62.6916 28.1875 63.4375 28.1875C63.513 28.1906 63.5886 28.1843 63.6625 28.1687C63.4028 28.471 63.0805 28.713 62.7178 28.8782C62.3552 29.0433 61.961 29.1275 61.5625 29.125C60.8166 29.125 60.1012 28.8287 59.5738 28.3012C59.0463 27.7738 58.75 27.0584 58.75 26.3125V23.5H64.375V24.4375H61.5625C61.3139 24.4375 61.0754 24.5363 60.8996 24.7121C60.7238 24.8879 60.625 25.1264 60.625 25.375Z" fill="#FDC741"/>
<path d="M64.375 22.5625V23.5H58.75V22.5625C58.7483 22.1505 58.8382 21.7432 59.0133 21.3703C59.1884 20.9973 59.4444 20.668 59.7625 20.4062C59.9101 21.021 60.2604 21.5682 60.7571 21.9594C61.2538 22.3506 61.8678 22.5631 62.5 22.5625H64.375Z" fill="#4DC591"/>
<path d="M18.4375 18.8125C19.1834 18.8125 19.8988 19.1088 20.4262 19.6363C20.9537 20.1637 21.25 20.8791 21.25 21.625V22.5625H15.625V21.625C15.625 20.8791 15.9213 20.1637 16.4488 19.6363C16.9762 19.1088 17.6916 18.8125 18.4375 18.8125Z" fill="#6BCFA4"/>
<path d="M16.5625 28.1875H20.3125C21.3071 28.1875 22.2609 28.5826 22.9642 29.2858C23.6674 29.9891 24.0625 30.9429 24.0625 31.9375V37.5625H12.8125V31.9375C12.8125 30.9429 13.2076 29.9891 13.9108 29.2858C14.6141 28.5826 15.5679 28.1875 16.5625 28.1875Z" fill="#6BCFA4"/>
<path d="M16.9122 30.6738L16.9281 30.6841L16.0938 35.6875L17.9688 37.5625L19.8438 35.6875L19.0094 30.6841C19.266 30.5129 19.4764 30.281 19.6219 30.0091C19.7674 29.7371 19.8436 29.4335 19.8438 29.125V28.1875H16.5625C16.2807 28.5641 16.1593 29.0369 16.2248 29.5027C16.2903 29.9685 16.5374 30.3895 16.9122 30.6738Z" fill="#4DC591"/>
<path d="M24.0625 34.7516V37.5641H12.8125V31.9391C12.8113 31.2811 12.9841 30.6345 13.3134 30.0648C13.6426 29.4951 14.1167 29.0227 14.6875 28.6953V29.1266C14.6875 30.6184 15.2801 32.0491 16.335 33.104C17.3899 34.1589 18.8207 34.7516 20.3125 34.7516H24.0625Z" fill="#4DC591"/>
<path d="M16.5625 26.3125H20.3125V29.125H16.5625V26.3125Z" fill="#EFAD1B"/>
<path d="M15.625 22.5625H21.25V25.375C21.25 26.1209 20.9537 26.8363 20.4262 27.3637C19.8988 27.8912 19.1834 28.1875 18.4375 28.1875C17.6916 28.1875 16.9762 27.8912 16.4488 27.3637C15.9213 26.8363 15.625 26.1209 15.625 25.375V22.5625Z" fill="#FCEA42"/>
<path d="M19.375 30.0625L20.3125 35.6875L18.4375 37.5625L16.5625 35.6875L17.5 30.0625H19.375Z" fill="#EF5350"/>
<path d="M20.3125 35.6875L18.4375 37.5625L16.5625 35.6875L17.5 30.0625H19.375L19.6188 31.5156C19.286 31.7892 18.8683 31.9384 18.4375 31.9375C18.2822 31.9347 18.1279 31.9127 17.9781 31.8719L17.65 33.8594C17.5918 34.1924 17.6316 34.5351 17.7646 34.8458C17.8977 35.1566 18.1182 35.422 18.3993 35.6097C18.6804 35.7975 19.01 35.8995 19.348 35.9033C19.686 35.9071 20.0178 35.8126 20.3031 35.6313L20.3125 35.6875Z" fill="#E53935"/>
<path d="M16.5625 28.1875H20.3125V29.125C20.3125 29.6223 20.115 30.0992 19.7633 30.4508C19.4117 30.8025 18.9348 31 18.4375 31C17.9402 31 17.4633 30.8025 17.1117 30.4508C16.76 30.0992 16.5625 29.6223 16.5625 29.125V28.1875Z" fill="#FF7373"/>
<path d="M20.1437 29.8937C19.9665 30.2827 19.6617 30.5995 19.2798 30.7915C18.8979 30.9836 18.4619 31.0394 18.044 30.9496C17.626 30.8599 17.2513 30.6301 16.9819 30.2983C16.7124 29.9664 16.5645 29.5525 16.5625 29.125V28.1875H17.5C17.5015 28.6843 17.6995 29.1604 18.0508 29.5117C18.4021 29.863 18.8782 30.061 19.375 30.0625C19.6407 30.0646 19.9034 30.0069 20.1437 29.8937Z" fill="#EF5350"/>
<path d="M17.5 24.4375C17.5 25.1834 17.7963 25.8988 18.3238 26.4262C18.8512 26.9537 19.5666 27.25 20.3125 27.25C20.388 27.2531 20.4636 27.2468 20.5375 27.2312C20.2778 27.5335 19.9555 27.7755 19.5928 27.9407C19.2302 28.1058 18.836 28.19 18.4375 28.1875C17.6916 28.1875 16.9762 27.8912 16.4488 27.3637C15.9213 26.8363 15.625 26.1209 15.625 25.375V22.5625H21.25V23.5H18.4375C18.1889 23.5 17.9504 23.5988 17.7746 23.7746C17.5988 23.9504 17.5 24.1889 17.5 24.4375Z" fill="#FDC741"/>
<path d="M21.25 21.625V22.5625H15.625V21.625C15.6233 21.213 15.7132 20.8057 15.8883 20.4328C16.0634 20.0598 16.3194 19.7305 16.6375 19.4688C16.785 20.0835 17.1354 20.6307 17.6321 21.0219C18.1288 21.4131 18.7428 21.6256 19.375 21.625H21.25Z" fill="#4DC591"/>
<path d="M18.4375 54.4375C19.1834 54.4375 19.8988 54.7338 20.4262 55.2613C20.9537 55.7887 21.25 56.5041 21.25 57.25V58.1875H15.625V57.25C15.625 56.5041 15.9213 55.7887 16.4488 55.2613C16.9762 54.7338 17.6916 54.4375 18.4375 54.4375Z" fill="#6BCFA4"/>
<path d="M16.5625 63.8125H20.3125C21.3071 63.8125 22.2609 64.2076 22.9642 64.9109C23.6674 65.6141 24.0625 66.5679 24.0625 67.5625V73.1875H12.8125V67.5625C12.8125 66.5679 13.2076 65.6141 13.9108 64.9109C14.6141 64.2076 15.5679 63.8125 16.5625 63.8125Z" fill="#6BCFA4"/>
<path d="M16.9122 66.2988L16.9281 66.3091L16.0938 71.3125L17.9688 73.1875L19.8438 71.3125L19.0094 66.3091C19.266 66.1379 19.4764 65.906 19.6219 65.6341C19.7674 65.3621 19.8436 65.0585 19.8438 64.75V63.8125H16.5625C16.2807 64.1891 16.1593 64.6619 16.2248 65.1277C16.2903 65.5935 16.5374 66.0145 16.9122 66.2988Z" fill="#4DC591"/>
<path d="M24.0625 70.3766V73.1891H12.8125V67.5641C12.8113 66.9061 12.9841 66.2595 13.3134 65.6898C13.6426 65.1201 14.1167 64.6477 14.6875 64.3203V64.7516C14.6875 66.2434 15.2801 67.6741 16.335 68.729C17.3899 69.7839 18.8207 70.3766 20.3125 70.3766H24.0625Z" fill="#4DC591"/>
<path d="M16.5625 61.9375H20.3125V64.75H16.5625V61.9375Z" fill="#EFAD1B"/>
<path d="M15.625 58.1875H21.25V61C21.25 61.7459 20.9537 62.4613 20.4262 62.9887C19.8988 63.5162 19.1834 63.8125 18.4375 63.8125C17.6916 63.8125 16.9762 63.5162 16.4488 62.9887C15.9213 62.4613 15.625 61.7459 15.625 61V58.1875Z" fill="#FCEA42"/>
<path d="M19.375 65.6875L20.3125 71.3125L18.4375 73.1875L16.5625 71.3125L17.5 65.6875H19.375Z" fill="#EF5350"/>
<path d="M20.3125 71.3125L18.4375 73.1875L16.5625 71.3125L17.5 65.6875H19.375L19.6188 67.1406C19.286 67.4142 18.8683 67.5634 18.4375 67.5625C18.2822 67.5597 18.1279 67.5377 17.9781 67.4969L17.65 69.4844C17.5918 69.8174 17.6316 70.1601 17.7646 70.4708C17.8977 70.7816 18.1182 71.047 18.3993 71.2347C18.6804 71.4225 19.01 71.5245 19.348 71.5283C19.686 71.5321 20.0178 71.4376 20.3031 71.2562L20.3125 71.3125Z" fill="#E53935"/>
<path d="M16.5625 63.8125H20.3125V64.75C20.3125 65.2473 20.115 65.7242 19.7633 66.0758C19.4117 66.4275 18.9348 66.625 18.4375 66.625C17.9402 66.625 17.4633 66.4275 17.1117 66.0758C16.76 65.7242 16.5625 65.2473 16.5625 64.75V63.8125Z" fill="#FF7373"/>
<path d="M20.1437 65.5187C19.9665 65.9077 19.6617 66.2245 19.2798 66.4165C18.8979 66.6086 18.4619 66.6644 18.044 66.5746C17.626 66.4849 17.2513 66.2551 16.9819 65.9233C16.7124 65.5914 16.5645 65.1775 16.5625 64.75V63.8125H17.5C17.5015 64.3093 17.6995 64.7854 18.0508 65.1367C18.4021 65.488 18.8782 65.686 19.375 65.6875C19.6407 65.6896 19.9034 65.6319 20.1437 65.5187Z" fill="#EF5350"/>
<path d="M17.5 60.0625C17.5 60.8084 17.7963 61.5238 18.3238 62.0512C18.8512 62.5787 19.5666 62.875 20.3125 62.875C20.388 62.8781 20.4636 62.8718 20.5375 62.8562C20.2778 63.1585 19.9555 63.4005 19.5928 63.5657C19.2302 63.7308 18.836 63.815 18.4375 63.8125C17.6916 63.8125 16.9762 63.5162 16.4488 62.9887C15.9213 62.4613 15.625 61.7459 15.625 61V58.1875H21.25V59.125H18.4375C18.1889 59.125 17.9504 59.2238 17.7746 59.3996C17.5988 59.5754 17.5 59.8139 17.5 60.0625Z" fill="#FDC741"/>
<path d="M21.25 57.25V58.1875H15.625V57.25C15.6233 56.838 15.7132 56.4307 15.8883 56.0578C16.0634 55.6848 16.3194 55.3555 16.6375 55.0938C16.785 55.7085 17.1354 56.2557 17.6321 56.6469C18.1288 57.0381 18.7428 57.2506 19.375 57.25H21.25Z" fill="#4DC591"/>
<path d="M54.7204 28.2194C54.525 28.2192 54.3346 28.1579 54.1757 28.0441C50.1324 25.1529 45.3016 23.5674 40.3314 23.5004C35.3611 23.4333 30.4893 24.888 26.3695 27.6691C26.2675 27.7381 26.1529 27.7863 26.0323 27.8111C25.9116 27.8358 25.7873 27.8365 25.6664 27.8132C25.5454 27.7898 25.4303 27.7429 25.3275 27.6751C25.2247 27.6072 25.1363 27.5198 25.0673 27.4178C24.9983 27.3158 24.9501 27.2012 24.9253 27.0806C24.9006 26.96 24.8999 26.8356 24.9232 26.7147C24.9466 26.5938 24.9935 26.4786 25.0613 26.3759C25.1291 26.2731 25.2165 26.1847 25.3185 26.1157C29.7561 23.1207 35.0035 21.5545 40.3567 21.6274C45.7098 21.7003 50.9126 23.4088 55.267 26.5235C55.4284 26.6391 55.549 26.803 55.6113 26.9916C55.6736 27.1801 55.6744 27.3836 55.6136 27.5726C55.5528 27.7617 55.4336 27.9266 55.273 28.0435C55.1125 28.1604 54.919 28.2233 54.7204 28.2232V28.2194Z" fill="#6BCFA4"/>
<path d="M65.0293 52.6226C64.9823 52.6224 64.9353 52.6189 64.8887 52.6123C64.7668 52.594 64.6498 52.5518 64.5442 52.4882C64.4387 52.4246 64.3467 52.3408 64.2736 52.2416C64.2004 52.1425 64.1476 52.0299 64.118 51.9102C64.0884 51.7906 64.0827 51.6663 64.1012 51.5445C64.5612 48.519 64.4473 45.434 63.7656 42.4507C63.7104 42.2082 63.7538 41.9536 63.8863 41.7431C64.0187 41.5326 64.2294 41.3833 64.472 41.3281C64.7145 41.2729 64.9691 41.3163 65.1796 41.4488C65.3901 41.5812 65.5394 41.7919 65.5946 42.0345C66.3265 45.2453 66.4492 48.5649 65.9565 51.821C65.9239 52.0437 65.8123 52.2472 65.642 52.3943C65.4718 52.5415 65.2543 52.6225 65.0293 52.6226Z" fill="#6BCFA4"/>
<path d="M39.9969 74.125C35.5782 74.1246 31.231 73.0096 27.3575 70.8832C27.2453 70.8263 27.1457 70.7474 27.0645 70.6512C26.9834 70.555 26.9225 70.4435 26.8854 70.3233C26.8483 70.2031 26.8358 70.0766 26.8486 69.9514C26.8614 69.8263 26.8993 69.705 26.96 69.5947C27.0207 69.4845 27.1029 69.3876 27.2018 69.3099C27.3007 69.2321 27.4143 69.1751 27.5357 69.1421C27.6571 69.1091 27.784 69.101 27.9086 69.1181C28.0333 69.1352 28.1532 69.1772 28.2613 69.2416C31.8579 71.2153 35.8943 72.2501 39.9969 72.2501C44.0995 72.2501 48.1359 71.2153 51.7325 69.2416C51.8406 69.1772 51.9605 69.1352 52.0852 69.1181C52.2099 69.101 52.3367 69.1091 52.4581 69.1421C52.5795 69.1751 52.6931 69.2321 52.792 69.3099C52.8909 69.3876 52.9732 69.4845 53.0338 69.5947C53.0945 69.705 53.1324 69.8263 53.1452 69.9514C53.158 70.0766 53.1455 70.2031 53.1084 70.3233C53.0713 70.4435 53.0104 70.555 52.9293 70.6512C52.8482 70.7474 52.7485 70.8263 52.6363 70.8832C48.7629 73.0096 44.4156 74.1246 39.9969 74.125Z" fill="#6BCFA4"/>
<path d="M14.9734 52.6264C14.749 52.6264 14.532 52.5459 14.3618 52.3995C14.1917 52.2531 14.0797 52.0505 14.0463 51.8285C13.8493 50.5199 13.7503 49.1985 13.75 47.8751C13.7502 45.5773 14.0515 43.2894 14.6462 41.0698C14.7106 40.8296 14.8678 40.6248 15.0832 40.5005C15.2986 40.3762 15.5545 40.3426 15.7947 40.407C16.0349 40.4714 16.2396 40.6286 16.3639 40.8439C16.4882 41.0593 16.5219 41.3152 16.4575 41.5554C15.5867 44.8127 15.399 48.2149 15.9063 51.5482C15.9247 51.6701 15.919 51.7944 15.8895 51.914C15.8599 52.0336 15.807 52.1462 15.7339 52.2454C15.6607 52.3446 15.5688 52.4284 15.4632 52.492C15.3577 52.5556 15.2406 52.5977 15.1188 52.616C15.0706 52.6229 15.0221 52.6264 14.9734 52.6264Z" fill="#6BCFA4"/>
</svg>
