<?xml version="1.0" standalone="no"?>
<!DOCTYPE svg PUBLIC "-//W3C//DTD SVG 1.1//EN" "http://www.w3.org/Graphics/SVG/1.1/DTD/svg11.dtd">
<svg xmlns="http://www.w3.org/2000/svg" width="225" height="45" viewBox="0 0 225 45" fill="none">
<path d="M77.0438 9.57791L86.5109 34.3888H80.0185L77.5754 27.1579H70.902L68.4589 34.3888H62.0005L71.4336 9.57791H77.0325H77.0438ZM74.25 16.8759L72.282 22.7545H76.2294L74.2613 16.8759H74.25Z" fill="#373B44"/>
<path d="M93.4784 16.7753C93.4784 17.4123 93.8403 17.9264 94.5529 18.2952C95.2655 18.6752 96.159 19.0217 97.2222 19.357C98.2854 19.6923 99.4504 20.0275 100.706 20.3852C101.961 20.7428 103.126 21.2122 104.19 21.8045C105.253 22.3969 106.146 23.1457 106.859 24.0509C107.572 24.9562 107.934 26.1297 107.934 27.5379C107.934 28.7225 107.662 29.7507 107.108 30.6337C106.554 31.5166 105.83 32.2542 104.925 32.8353C104.02 33.4165 102.979 33.8524 101.803 34.1429C100.627 34.4335 99.4278 34.59 98.1836 34.59C96.9395 34.59 95.6161 34.4335 94.3493 34.1094C93.0825 33.7965 91.9514 33.3159 90.9447 32.6789C89.9381 32.0418 89.1237 31.2483 88.5016 30.3095C87.8795 29.3707 87.5628 28.2531 87.5289 26.9791H92.7997C92.9241 27.4708 93.1503 27.9067 93.4784 28.2755C93.8064 28.6443 94.2136 28.9461 94.6999 29.1919C95.175 29.4378 95.6953 29.6278 96.2608 29.7396C96.8263 29.8513 97.3919 29.9184 97.9687 29.9184C98.5456 29.9184 99.0885 29.8625 99.6201 29.7396C100.152 29.6166 100.615 29.449 101.023 29.2031C101.43 28.9684 101.758 28.689 102.007 28.3537C102.256 28.0184 102.38 27.6385 102.38 27.1802C102.38 26.5432 102.018 26.0291 101.305 25.6379C100.593 25.2468 99.6993 24.878 98.6361 24.5427C97.5729 24.1962 96.4078 23.8386 95.1524 23.4586C93.8969 23.0786 92.7318 22.5869 91.6686 21.9834C90.6054 21.3798 89.7119 20.6199 88.9993 19.7146C88.2867 18.8093 87.9248 17.6582 87.9248 16.2612C87.9248 15.1101 88.1849 14.093 88.7165 13.2325C89.2368 12.3719 89.9381 11.6455 90.7977 11.0755C91.6573 10.4943 92.6414 10.0696 93.7611 9.77907C94.8696 9.49966 96.012 9.35437 97.1883 9.35437C98.4325 9.35437 99.654 9.51084 100.864 9.83495C102.075 10.1591 103.149 10.6173 104.11 11.232C105.072 11.8466 105.841 12.6178 106.44 13.5566C107.04 14.4954 107.345 15.5683 107.379 16.7977H102.108C102.007 16.3283 101.814 15.9259 101.498 15.5906C101.181 15.2553 100.819 14.976 100.401 14.7413C99.9821 14.5066 99.5183 14.3277 99.0206 14.2271C98.523 14.1154 98.014 14.0707 97.5163 14.0707C97.0186 14.0707 96.521 14.1266 96.0233 14.2495C95.5369 14.3724 95.1071 14.5401 94.7339 14.7636C94.3606 14.9871 94.0665 15.2665 93.8403 15.5906C93.6141 15.9259 93.501 16.3171 93.501 16.7641L93.4784 16.7753Z" fill="#373B44"/>
<path d="M116.428 16.7753C116.428 17.4123 116.79 17.9264 117.502 18.2952C118.215 18.6752 119.109 19.0217 120.172 19.357C121.235 19.6923 122.4 20.0275 123.655 20.3852C124.911 20.7428 126.076 21.2122 127.139 21.8045C128.202 22.3969 129.096 23.1457 129.809 24.0509C130.521 24.9562 130.883 26.1297 130.883 27.5379C130.883 28.7225 130.612 29.7507 130.057 30.6337C129.503 31.5166 128.779 32.2542 127.874 32.8353C126.97 33.4165 125.929 33.8524 124.753 34.1429C123.576 34.4335 122.377 34.59 121.133 34.59C119.889 34.59 118.566 34.4335 117.299 34.1094C116.032 33.7965 114.901 33.3159 113.894 32.6789C112.888 32.0418 112.073 31.2483 111.451 30.3095C110.829 29.3707 110.512 28.2531 110.478 26.9791H115.749C115.874 27.4708 116.1 27.9067 116.428 28.2755C116.756 28.6443 117.163 28.9461 117.649 29.1919C118.125 29.4378 118.645 29.6278 119.21 29.7396C119.776 29.8513 120.341 29.9184 120.918 29.9184C121.495 29.9184 122.038 29.8625 122.57 29.7396C123.101 29.6166 123.565 29.449 123.972 29.2031C124.379 28.9684 124.707 28.689 124.956 28.3537C125.205 28.0184 125.329 27.6385 125.329 27.1802C125.329 26.5432 124.968 26.0291 124.255 25.6379C123.542 25.2468 122.649 24.878 121.586 24.5427C120.522 24.1962 119.357 23.8386 118.102 23.4586C116.846 23.0786 115.681 22.5869 114.618 21.9834C113.555 21.3798 112.661 20.6199 111.949 19.7146C111.236 18.8093 110.874 17.6582 110.874 16.2612C110.874 15.1101 111.134 14.093 111.666 13.2325C112.186 12.3719 112.888 11.6455 113.747 11.0755C114.607 10.4943 115.591 10.0696 116.711 9.77907C117.819 9.49966 118.962 9.35437 120.138 9.35437C121.382 9.35437 122.604 9.51084 123.814 9.83495C125.024 10.1591 126.099 10.6173 127.06 11.232C128.021 11.8466 128.791 12.6178 129.39 13.5566C129.99 14.4954 130.295 15.5683 130.329 16.7977H125.058C124.956 16.3283 124.764 15.9259 124.447 15.5906C124.131 15.2553 123.769 14.976 123.35 14.7413C122.932 14.5066 122.468 14.3277 121.97 14.2271C121.473 14.1154 120.964 14.0707 120.466 14.0707C119.968 14.0707 119.47 14.1266 118.973 14.2495C118.486 14.3724 118.057 14.5401 117.683 14.7636C117.31 14.9871 117.016 15.2665 116.79 15.5906C116.564 15.9259 116.451 16.3171 116.451 16.7641L116.428 16.7753Z" fill="#373B44"/>
<path d="M140.35 29.4937H153.516V34.3888H134.469V9.57791H153.018V14.4283H140.362V19.5358H149.15V24.4309H140.362V29.5049L140.35 29.4937Z" fill="#373B44"/>
<path d="M179.124 9.57791V14.4283H170.369V34.3776H164.487V14.4283H155.767V9.57791H179.124Z" fill="#373B44"/>
<path d="M213.273 20.6027C213.71 20.9178 213.815 21.5295 213.53 21.9465C213.206 22.3729 212.579 22.4748 212.151 22.1968C211.713 21.8817 209.165 18.9994 209.165 18.9994C209.165 18.9994 212.807 20.2783 213.283 20.5934L213.273 20.6027Z" fill="#373B44"/>
<path d="M212.693 21.9465C213.013 21.9465 213.273 21.6934 213.273 21.3812C213.273 21.069 213.013 20.8158 212.693 20.8158C212.373 20.8158 212.113 21.069 212.113 21.3812C212.113 21.6934 212.373 21.9465 212.693 21.9465Z" fill="#4DC591"/>
<path d="M196.859 9.27669V34.4224H191.068V9.27669H196.859Z" fill="#4DC591"/>
<path d="M217.989 36.8811L214.941 32.8177C214.038 32.9968 213.158 33.0863 212.3 33.0863C210.065 33.0863 208.01 32.5714 206.136 31.5416C204.285 30.5117 202.806 29.0789 201.699 27.2431C200.616 25.3849 200.074 23.3028 200.074 20.9968C200.074 18.6908 200.616 16.62 201.699 14.7841C202.806 12.9483 204.285 11.5155 206.136 10.4856C208.01 9.4558 210.065 8.94087 212.3 8.94087C214.535 8.94087 216.578 9.4558 218.43 10.4856C220.304 11.5155 221.771 12.9483 222.833 14.7841C223.916 16.62 224.458 18.6908 224.458 20.9968C224.458 23.0117 224.04 24.8587 223.205 26.5378C222.392 28.1946 221.252 29.5714 219.784 30.6684L225 36.8811H217.989ZM206 20.9968C206 23.0789 206.565 24.7468 207.694 26.0005C208.845 27.2319 210.381 27.8475 212.3 27.8475C214.196 27.8475 215.709 27.2207 216.838 25.9669C217.989 24.7132 218.565 23.0565 218.565 20.9968C218.565 18.9147 217.989 17.258 216.838 16.0267C215.709 14.7729 214.196 14.1461 212.3 14.1461C210.381 14.1461 208.845 14.7618 207.694 15.9931C206.565 17.2244 206 18.8923 206 20.9968Z" fill="#4DC591"/>
<path d="M26.5833 37.8001C21.1252 38.0117 16.2666 35.1106 13.7684 30.7002C13.5542 30.7049 13.3306 30.7237 13.1164 30.7284C10.3422 30.8177 7.86292 30.7049 5.76913 30.3993V31.7534C5.76913 33.1781 6.54003 34.4994 7.78679 35.2094L24.0184 44.4675C25.2699 45.1775 26.8069 45.1775 28.0585 44.4675L44.2901 35.2094C45.5368 34.4994 46.3077 33.1734 46.3077 31.7534V28.6407C44.271 29.3319 40.6307 30.5074 38.0849 31.0434C35.7246 34.9273 31.5085 37.6027 26.5833 37.7954V37.8001ZM11.6317 34.3019C11.2273 34.3019 10.8989 33.9775 10.8989 33.5778C10.8989 33.1781 11.2273 32.8584 11.6317 32.8584C12.0362 32.8584 12.3646 33.1781 12.3646 33.5778C12.3646 33.9775 12.0362 34.3019 11.6317 34.3019ZM24.6323 42.2952C23.8947 42.2952 23.2951 41.7028 23.2951 40.9787C23.2951 40.2546 23.8947 39.6621 24.6323 39.6621C25.3699 39.6621 25.9647 40.2499 25.9647 40.9787C25.9647 41.7075 25.3651 42.2952 24.6323 42.2952ZM41.5158 31.6124C41.8632 31.6124 42.144 31.8898 42.144 32.233C42.144 32.5763 41.8632 32.8584 41.5158 32.8584C41.1684 32.8584 40.8829 32.581 40.8829 32.233C40.8829 31.8851 41.1637 31.6124 41.5158 31.6124Z" fill="#4DC591"/>
<path d="M46.3078 16.8577C46.3078 16.8577 46.2887 16.853 46.2792 16.8483C45.9794 16.7495 45.6701 16.6555 45.3465 16.5567C45.3275 16.552 45.3084 16.5473 45.2847 16.5379C44.9563 16.4392 44.628 16.3498 44.2806 16.2605C43.957 16.1806 43.6287 16.1006 43.2955 16.0254C43.2194 16.0066 43.148 15.9925 43.0719 15.9737C42.7626 15.8985 42.4438 15.8373 42.1202 15.7668C42.0107 15.748 41.906 15.7292 41.7966 15.7104C41.5444 15.6587 41.2827 15.6116 41.0162 15.5693C40.8496 15.5364 40.6831 15.5129 40.5165 15.4847C40.2786 15.4471 40.0359 15.4048 39.7885 15.3718C39.6267 15.3436 39.4601 15.3201 39.2936 15.2966C38.9985 15.2496 38.6987 15.212 38.3989 15.1791C38.2086 15.1556 38.0183 15.132 37.8279 15.1085C37.6328 15.085 37.4377 15.0615 37.2378 15.038C37.0951 15.0286 36.9571 15.0098 36.8048 14.991C36.8334 15.0286 36.8619 15.0662 36.8905 15.1038C36.8952 15.1085 36.8952 15.1132 36.9 15.1226C37.1284 15.3954 37.3425 15.6822 37.5519 15.9737C37.5614 15.9925 37.5757 16.0066 37.5852 16.0301C37.7518 16.2652 37.9136 16.5097 38.0658 16.7589C38.0896 16.7918 38.1039 16.8294 38.1277 16.8577C38.2467 17.0645 38.3561 17.2667 38.4751 17.4783C38.5227 17.563 38.5655 17.657 38.6131 17.7416C39.4744 19.4437 39.9931 21.3527 40.074 23.3746C40.0787 23.4921 40.0787 23.6097 40.0787 23.7272C37.1189 25.1801 32.0129 26.2616 26.1788 26.4919C20.2877 26.7176 15.0627 26.017 12.0077 24.7757C12.0029 24.6723 11.9982 24.5688 11.9886 24.4701C11.9078 22.4201 12.2837 20.4546 13.0213 18.6726C13.0927 18.5127 13.1593 18.3529 13.2306 18.1977C13.2687 18.1131 13.3115 18.019 13.3591 17.9344C13.4353 17.7792 13.5114 17.6288 13.5875 17.4783C13.6256 17.3984 13.6684 17.3184 13.716 17.2385C13.835 17.0269 13.9587 16.8106 14.092 16.6085C14.13 16.5473 14.1729 16.4909 14.2062 16.4251C14.3109 16.2652 14.4203 16.11 14.5297 15.9596C16.9614 12.5319 20.9253 10.2279 25.4841 10.0539C29.2005 9.90818 32.641 11.2106 35.244 13.444C39.7123 13.176 43.5525 13.4111 46.3078 14.1117V13.2466C46.3078 11.8219 45.5369 10.5006 44.2901 9.79063L28.0585 0.532496C26.807 -0.177499 25.2699 -0.177499 24.0184 0.532496L7.7868 9.79063C6.54004 10.5006 5.76915 11.8266 5.76915 13.2466V18.2823C2.0955 19.7588 -0.0696676 21.5502 0.00171152 23.4216C0.0778493 25.434 2.7855 27.1643 7.13011 28.3727C7.27287 28.4103 7.41087 28.4527 7.55838 28.4903C7.74873 28.5373 7.93907 28.589 8.13418 28.6313C8.30549 28.6784 8.49107 28.716 8.6719 28.763C8.90031 28.8147 9.13824 28.8664 9.37617 28.9181C9.65217 28.9746 9.92817 29.031 10.2184 29.0874C10.3993 29.1203 10.5801 29.158 10.7657 29.1909C10.9798 29.2238 11.1987 29.2661 11.4176 29.299C11.6127 29.3319 11.8078 29.3695 12.0124 29.3978C12.2218 29.4307 12.4264 29.4589 12.6406 29.4871C12.8262 29.5153 13.0022 29.5435 13.1926 29.567C17.0613 30.0842 21.5535 30.2911 26.3263 30.1077C31.0612 29.9197 35.4819 29.3789 39.2793 28.5702C39.2793 28.5702 44.785 27.1878 46.3078 26.5061C49.9481 25.0296 52.1037 23.2476 52.0276 21.395C51.9562 19.5989 49.8244 18.0331 46.3078 16.8624V16.8577Z" fill="#373B44"/>
<g clip-path="url(#clip0_27_165)">
<path d="M26.1723 15.306C24.1854 15.3086 22.2806 16.0897 20.8756 17.4779C19.4706 18.8662 18.6801 20.7483 18.6775 22.7116C18.6775 28.0282 25.6602 34.687 25.9568 34.9678C26.0145 35.0232 26.0918 35.0542 26.1723 35.0542C26.2528 35.0542 26.3301 35.0232 26.3878 34.9678C26.6844 34.687 33.6671 28.0282 33.6671 22.7116C33.6645 20.7483 32.874 18.8662 31.469 17.4779C30.064 16.0897 28.1592 15.3086 26.1723 15.306ZM26.1723 26.1058C25.4929 26.1058 24.8288 25.9067 24.2638 25.5338C23.6989 25.1608 23.2587 24.6307 22.9987 24.0105C22.7387 23.3903 22.6706 22.7078 22.8032 22.0494C22.9357 21.391 23.2629 20.7862 23.7433 20.3115C24.2237 19.8368 24.8358 19.5135 25.5021 19.3826C26.1685 19.2516 26.8592 19.3188 27.4869 19.5757C28.1146 19.8326 28.651 20.2677 29.0285 20.8259C29.406 21.384 29.6074 22.0403 29.6074 22.7116C29.6069 23.6116 29.2448 24.4746 28.6007 25.1111C27.9566 25.7475 27.0832 26.1053 26.1723 26.1058Z" fill="#4DC591"/>
</g>
<defs>
<clipPath id="clip0_27_165">
<rect width="19.9862" height="19.7482" fill="white" transform="translate(16.1792 15.306)"/>
</clipPath>
</defs>
</svg>
