<svg width="201" height="189" viewBox="0 0 201 189" fill="none" xmlns="http://www.w3.org/2000/svg">
<path d="M101.624 110.233C85.6263 110.846 71.3858 102.436 64.0632 89.6501C63.4356 89.6637 62.78 89.7182 62.1524 89.7319C54.0209 89.9909 46.7542 89.6637 40.6172 88.7777V92.7034C40.6172 96.8336 42.8767 100.664 46.531 102.722L94.1065 129.562C97.7748 131.62 102.28 131.62 105.948 129.562L153.524 102.722C157.178 100.664 159.437 96.82 159.437 92.7034V83.6797C153.468 85.6834 142.798 89.0912 135.336 90.6451C128.418 101.904 116.06 109.66 101.624 110.219V110.233ZM57.8007 100.091C56.6152 100.091 55.6528 99.1509 55.6528 97.9923C55.6528 96.8336 56.6152 95.9067 57.8007 95.9067C58.9863 95.9067 59.9487 96.8336 59.9487 97.9923C59.9487 99.1509 58.9863 100.091 57.8007 100.091ZM95.9058 123.264C93.7439 123.264 91.9865 121.547 91.9865 119.447C91.9865 117.348 93.7439 115.631 95.9058 115.631C98.0677 115.631 99.8111 117.335 99.8111 119.447C99.8111 121.56 98.0537 123.264 95.9058 123.264ZM145.392 92.2945C146.41 92.2945 147.233 93.0987 147.233 94.0938C147.233 95.0889 146.41 95.9067 145.392 95.9067C144.374 95.9067 143.537 95.1025 143.537 94.0938C143.537 93.0851 144.36 92.2945 145.392 92.2945Z" fill="#4DC591"/>
<path d="M159.441 49.5269C159.441 49.5269 159.385 49.5132 159.357 49.4996C158.478 49.2133 157.572 48.9407 156.623 48.6545C156.568 48.6409 156.512 48.6272 156.442 48.6C155.48 48.3137 154.517 48.0547 153.499 47.7957C152.551 47.564 151.588 47.3323 150.612 47.1142C150.389 47.0596 150.18 47.0187 149.956 46.9642C149.05 46.7461 148.115 46.5689 147.167 46.3645C146.846 46.3099 146.539 46.2554 146.218 46.2009C145.479 46.0509 144.712 45.9146 143.931 45.792C143.443 45.6965 142.955 45.6284 142.466 45.5466C141.769 45.4375 141.058 45.3149 140.332 45.2195C139.858 45.1377 139.37 45.0695 138.882 45.0014C138.017 44.8651 137.138 44.756 136.26 44.6606C135.702 44.5924 135.144 44.5243 134.586 44.4561C134.014 44.388 133.442 44.3198 132.857 44.2517C132.438 44.2244 132.034 44.1699 131.587 44.1153C131.671 44.2244 131.755 44.3334 131.838 44.4425C131.852 44.4561 131.852 44.4698 131.866 44.497C132.536 45.2876 133.163 46.1191 133.777 46.9642C133.805 47.0187 133.847 47.0596 133.875 47.1278C134.363 47.8094 134.837 48.5182 135.283 49.2406C135.353 49.336 135.395 49.4451 135.465 49.5269C135.813 50.1266 136.134 50.7128 136.483 51.3262C136.622 51.5715 136.748 51.8441 136.887 52.0895C139.412 57.0239 140.932 62.5581 141.169 68.4195C141.183 68.7602 141.183 69.101 141.183 69.4418C132.508 73.6538 117.542 76.7889 100.442 77.4568C83.1749 78.1111 67.8603 76.0801 58.9059 72.4815C58.892 72.1816 58.878 71.8817 58.8501 71.5955C58.613 65.6524 59.7149 59.9546 61.8768 54.7884C62.086 54.325 62.2813 53.8615 62.4905 53.4117C62.6021 53.1663 62.7276 52.8937 62.8671 52.6484C63.0902 52.1985 63.3134 51.7624 63.5366 51.3262C63.6481 51.0944 63.7737 50.8627 63.9132 50.631C64.2618 50.0176 64.6245 49.3905 65.015 48.8044C65.1266 48.6272 65.2521 48.4636 65.3498 48.2728C65.6566 47.8093 65.9774 47.3595 66.2982 46.9233C73.4255 36.9863 85.0439 30.3071 98.4057 29.8028C109.299 29.3802 119.383 33.156 127.012 39.6307C140.109 38.8538 151.365 39.5353 159.441 41.5663V39.0582C159.441 34.928 157.181 31.0977 153.527 29.0394L105.951 2.19996C102.283 0.141679 97.7781 0.141679 94.1099 2.19996L46.5344 29.0394C42.8801 31.0977 40.6205 34.9417 40.6205 39.0582V53.6571C29.8529 57.9372 23.5067 63.1306 23.716 68.5558C23.9391 74.3898 31.8753 79.4061 44.6096 82.9092C45.028 83.0183 45.4325 83.141 45.8649 83.25C46.4228 83.3863 46.9807 83.5362 47.5525 83.6589C48.0546 83.7952 48.5986 83.9043 49.1286 84.0406C49.7981 84.1905 50.4955 84.3405 51.1929 84.4904C52.0018 84.654 52.8108 84.8176 53.6616 84.9811C54.1916 85.0766 54.7216 85.1856 55.2656 85.281C55.8932 85.3764 56.5348 85.4991 57.1764 85.5945C57.7483 85.69 58.3201 85.799 58.9199 85.8808C59.5336 85.9762 60.1333 86.058 60.761 86.1398C61.3049 86.2216 61.821 86.3034 62.3789 86.3715C73.7184 87.8709 86.885 88.4707 100.874 87.9391C114.752 87.3938 127.71 85.8263 138.84 83.4817C138.84 83.4817 154.978 79.4742 159.441 77.4977C170.111 73.2176 176.429 68.0514 176.206 62.6808C175.997 57.4737 169.748 52.9346 159.441 49.5405V49.5269ZM130.039 23.5461C131.308 23.5461 132.354 24.5685 132.354 25.8225C132.354 27.0766 131.308 28.0989 130.039 28.0989C128.77 28.0989 127.71 27.0766 127.71 25.8225C127.71 24.5685 128.756 23.5461 130.039 23.5461ZM104.264 11.5917C106.593 11.5917 108.49 13.4183 108.49 15.7219C108.49 18.0256 106.593 19.8521 104.264 19.8521C101.935 19.8521 100.038 17.9983 100.038 15.7219C100.038 13.4456 101.907 11.5917 104.264 11.5917ZM81.1246 18.8025C82.8122 18.8025 84.1791 20.1384 84.1791 21.7877C84.1791 23.4371 82.8122 24.8002 81.1246 24.8002C79.4369 24.8002 78.07 23.4507 78.07 21.7877C78.07 20.1248 79.4369 18.8025 81.1246 18.8025ZM53.7592 42.1388C52.239 42.1388 51.0255 40.9393 51.0255 39.4535C51.0255 37.9678 52.239 36.7682 53.7592 36.7682C55.2795 36.7682 56.493 37.9678 56.493 39.4535C56.493 40.9393 55.2795 42.1388 53.7592 42.1388Z" fill="#373B44"/>
<g clip-path="url(#clip0_50_41003)">
<path d="M100.421 48.4375C94.5969 48.4452 89.0139 50.7639 84.8958 54.885C80.7778 59.0062 78.4609 64.5934 78.4531 70.4216C78.4531 86.2044 98.9196 105.972 99.7891 106.805C99.9583 106.97 100.185 107.062 100.421 107.062C100.657 107.062 100.883 106.97 101.052 106.805C101.922 105.972 122.388 86.2044 122.388 70.4216C122.381 64.5934 120.064 59.0062 115.946 54.885C111.828 50.7639 106.245 48.4452 100.421 48.4375ZM100.421 80.4977C98.4294 80.4977 96.4827 79.9067 94.827 78.7995C93.1712 77.6924 91.8807 76.1187 91.1187 74.2775C90.3566 72.4364 90.1572 70.4104 90.5457 68.4559C90.9342 66.5013 91.8931 64.7059 93.3012 63.2968C94.7093 61.8876 96.5034 60.928 98.4564 60.5392C100.41 60.1504 102.434 60.3499 104.274 61.1126C106.114 61.8752 107.686 63.1667 108.792 64.8237C109.899 66.4807 110.489 68.4288 110.489 70.4216C110.488 73.0935 109.426 75.6554 107.538 77.5447C105.651 79.434 103.091 80.4961 100.421 80.4977Z" fill="#4DC591"/>
</g>
<path d="M18.5504 154.859L30.2246 185.12H22.2186L19.206 176.301H10.9768L7.96412 185.12H0L11.6324 154.859H18.5365H18.5504ZM15.1053 163.76L12.6784 170.93H17.5462L15.1193 163.76H15.1053Z" fill="#373B44"/>
<path d="M38.813 163.637C38.813 164.414 39.2594 165.041 40.1381 165.491C41.0168 165.954 42.1186 166.377 43.4297 166.786C44.7408 167.195 46.1774 167.604 47.7256 168.04C49.2738 168.476 50.7104 169.048 52.0215 169.771C53.3326 170.493 54.4344 171.407 55.3131 172.511C56.1918 173.615 56.6382 175.046 56.6382 176.764C56.6382 178.208 56.3034 179.463 55.62 180.539C54.9365 181.616 54.0439 182.516 52.9281 183.225C51.8123 183.934 50.5291 184.465 49.0785 184.82C47.628 185.174 46.1495 185.365 44.6153 185.365C43.081 185.365 41.4491 185.174 39.887 184.779C38.3249 184.397 36.9301 183.811 35.6887 183.034C34.4474 182.257 33.4432 181.289 32.6761 180.144C31.9089 178.999 31.5184 177.636 31.4766 176.082H37.9762C38.1296 176.682 38.4085 177.213 38.813 177.663C39.2175 178.113 39.7196 178.481 40.3194 178.781C40.9052 179.081 41.5468 179.313 42.2441 179.449C42.9415 179.585 43.6389 179.667 44.3503 179.667C45.0616 179.667 45.7311 179.599 46.3866 179.449C47.0421 179.299 47.614 179.095 48.1161 178.795C48.6182 178.508 49.0227 178.168 49.3296 177.759C49.6364 177.35 49.7898 176.886 49.7898 176.327C49.7898 175.55 49.3435 174.923 48.4648 174.446C47.5861 173.969 46.4842 173.519 45.1732 173.111C43.8621 172.688 42.4255 172.252 40.8773 171.788C39.3291 171.325 37.8925 170.725 36.5814 169.989C35.2703 169.253 34.1684 168.326 33.2897 167.222C32.411 166.118 31.9647 164.714 31.9647 163.01C31.9647 161.606 32.2855 160.365 32.9411 159.316C33.5826 158.266 34.4474 157.38 35.5074 156.685C36.5675 155.976 37.7809 155.458 39.1617 155.104C40.5286 154.763 41.9373 154.586 43.3879 154.586C44.9221 154.586 46.4285 154.777 47.9209 155.172C49.4133 155.567 50.7383 156.126 51.9238 156.876C53.1094 157.626 54.0578 158.566 54.7971 159.711C55.5363 160.856 55.9129 162.165 55.9547 163.664H49.4551C49.3296 163.092 49.0925 162.601 48.7019 162.192C48.3114 161.783 47.8651 161.442 47.349 161.156C46.8329 160.87 46.2611 160.652 45.6474 160.529C45.0337 160.393 44.406 160.338 43.7923 160.338C43.1786 160.338 42.565 160.406 41.9513 160.556C41.3515 160.706 40.8215 160.911 40.3612 161.183C39.901 161.456 39.5383 161.797 39.2593 162.192C38.9804 162.601 38.8409 163.078 38.8409 163.623L38.813 163.637Z" fill="#373B44"/>
<path d="M67.1099 163.637C67.1099 164.414 67.5562 165.041 68.435 165.491C69.3137 165.954 70.4155 166.377 71.7266 166.786C73.0377 167.195 74.4743 167.604 76.0225 168.04C77.5707 168.476 79.0073 169.048 80.3184 169.771C81.6294 170.493 82.7313 171.407 83.61 172.511C84.4887 173.615 84.935 175.046 84.935 176.764C84.935 178.208 84.6003 179.463 83.9169 180.539C83.2334 181.616 82.3408 182.516 81.225 183.225C80.1092 183.934 78.826 184.465 77.3754 184.82C75.9248 185.174 74.4464 185.365 72.9121 185.365C71.3779 185.365 69.746 185.174 68.1839 184.779C66.6217 184.397 65.227 183.811 63.9856 183.034C62.7443 182.257 61.7401 181.289 60.9729 180.144C60.2058 178.999 59.8153 177.636 59.7734 176.082H66.2731C66.4265 176.682 66.7054 177.213 67.1099 177.663C67.5144 178.113 68.0165 178.481 68.6163 178.781C69.2021 179.081 69.8437 179.313 70.541 179.449C71.2384 179.585 71.9358 179.667 72.6471 179.667C73.3585 179.667 74.028 179.599 74.6835 179.449C75.339 179.299 75.9109 179.095 76.413 178.795C76.9151 178.508 77.3196 178.168 77.6265 177.759C77.9333 177.35 78.0867 176.886 78.0867 176.327C78.0867 175.55 77.6404 174.923 76.7617 174.446C75.883 173.969 74.7811 173.519 73.4701 173.111C72.159 172.688 70.7224 172.252 69.1742 171.788C67.626 171.325 66.1894 170.725 64.8783 169.989C63.5672 169.253 62.4653 168.326 61.5866 167.222C60.7079 166.118 60.2616 164.714 60.2616 163.01C60.2616 161.606 60.5824 160.365 61.2379 159.316C61.8795 158.266 62.7443 157.38 63.8043 156.685C64.8643 155.976 66.0778 155.458 67.4586 155.104C68.8255 154.763 70.2342 154.586 71.6847 154.586C73.219 154.586 74.7253 154.777 76.2177 155.172C77.7101 155.567 79.0352 156.126 80.2207 156.876C81.4063 157.626 82.3547 158.566 83.094 159.711C83.8332 160.856 84.2098 162.165 84.2516 163.664H77.752C77.6265 163.092 77.3894 162.601 76.9988 162.192C76.6083 161.783 76.162 161.442 75.6459 161.156C75.1298 160.87 74.558 160.652 73.9443 160.529C73.3306 160.393 72.7029 160.338 72.0892 160.338C71.4755 160.338 70.8618 160.406 70.2481 160.556C69.6484 160.706 69.1184 160.911 68.6581 161.183C68.1978 161.456 67.8352 161.797 67.5562 162.192C67.2773 162.601 67.1378 163.078 67.1378 163.623L67.1099 163.637Z" fill="#373B44"/>
<path d="M96.6122 179.15H112.847V185.12H89.3594V154.859H112.234V160.775H96.6261V167.005H107.463V172.975H96.6261V179.163L96.6122 179.15Z" fill="#373B44"/>
<path d="M144.427 154.859V160.775H133.631V185.107H126.379V160.775H115.625V154.859H144.427Z" fill="#373B44"/>
<path d="M186.542 168.307C187.082 168.691 187.211 169.437 186.859 169.946C186.46 170.466 185.686 170.59 185.159 170.251C184.619 169.867 181.477 166.352 181.477 166.352C181.477 166.352 185.968 167.911 186.554 168.296L186.542 168.307Z" fill="#373B44"/>
<path d="M185.84 169.942C186.235 169.942 186.556 169.633 186.556 169.252C186.556 168.871 186.235 168.562 185.84 168.562C185.445 168.562 185.125 168.871 185.125 169.252C185.125 169.633 185.445 169.942 185.84 169.942Z" fill="#4DC591"/>
<path d="M166.298 154.529V185.934H159.156V154.529H166.298Z" fill="#4DC591"/>
<path d="M192.354 189.005L188.596 183.93C187.482 184.154 186.396 184.265 185.338 184.265C182.582 184.265 180.048 183.622 177.737 182.336C175.454 181.05 173.631 179.26 172.266 176.968C170.93 174.647 170.262 172.046 170.262 169.166C170.262 166.286 170.93 163.7 172.266 161.407C173.631 159.114 175.454 157.325 177.737 156.039C180.048 154.752 182.582 154.109 185.338 154.109C188.095 154.109 190.614 154.752 192.897 156.039C195.208 157.325 197.018 159.114 198.326 161.407C199.663 163.7 200.331 166.286 200.331 169.166C200.331 171.683 199.816 173.99 198.786 176.087C197.784 178.156 196.378 179.875 194.568 181.246L200.999 189.005H192.354ZM177.57 169.166C177.57 171.767 178.266 173.85 179.659 175.416C181.078 176.954 182.972 177.722 185.338 177.722C187.677 177.722 189.542 176.94 190.934 175.374C192.354 173.808 193.064 171.739 193.064 169.166C193.064 166.566 192.354 164.497 190.934 162.959C189.542 161.393 187.677 160.61 185.338 160.61C182.972 160.61 181.078 161.379 179.659 162.917C178.266 164.455 177.57 166.538 177.57 169.166Z" fill="#4DC591"/>
<defs>
<clipPath id="clip0_50_41003">
<rect width="58.5802" height="58.6243" fill="white" transform="translate(71.1328 48.4375)"/>
</clipPath>
</defs>
</svg>
