<svg width="400" height="120" viewBox="0 0 400 120" fill="none" xmlns="http://www.w3.org/2000/svg">
  <g transform="translate(0, 10)">
    <!-- Logo Icon -->
    <g transform="translate(20, 0) scale(0.5)">
      <path d="M125 50C83.5 50 50 83.5 50 125C50 166.5 83.5 200 125 200C166.5 200 200 166.5 200 125C200 83.5 166.5 50 125 50Z" fill="#FFFFFF" />
      <path d="M125 75C97.4 75 75 97.4 75 125C75 152.6 97.4 175 125 175C152.6 175 175 152.6 175 125C175 97.4 152.6 75 125 75Z" fill="#4CD4A1" />
      <path d="M125 100C111.2 100 100 111.2 100 125C100 138.8 111.2 150 125 150C138.8 150 150 138.8 150 125C150 111.2 138.8 100 125 100Z" fill="#FFFFFF" />
      <path d="M50 50C22.4 50 0 72.4 0 100V150C0 177.6 22.4 200 50 200H75V175H50C36.2 175 25 163.8 25 150V100C25 86.2 36.2 75 50 75H75V50H50Z" fill="#FFFFFF" />
      <path d="M175 50V75H200C213.8 75 225 86.2 225 100V150C225 163.8 213.8 175 200 175H175V200H200C227.6 200 250 177.6 250 150V100C250 72.4 227.6 50 200 50H175Z" fill="#FFFFFF" />
      <circle cx="50" cy="75" r="10" fill="#4CD4A1" />
      <circle cx="50" cy="175" r="10" fill="#4CD4A1" />
      <circle cx="200" cy="75" r="10" fill="#4CD4A1" />
      <circle cx="200" cy="175" r="10" fill="#4CD4A1" />
    </g>
    
    <!-- Text -->
    <g transform="translate(150, 50)">
      <text font-family="Arial, sans-serif" font-size="48" font-weight="bold" fill="white">ASSET IQ</text>
    </g>
  </g>
</svg>
