<svg width="200" height="120" viewBox="0 0 200 120" fill="none" xmlns="http://www.w3.org/2000/svg">
  <rect width="200" height="120" rx="8" fill="#F3F4F6" />
  
  <!-- People -->
  <g transform="translate(40, 20)">
    <!-- Person 1 -->
    <circle cx="20" cy="20" r="15" fill="#4CD4A1" />
    <rect x="10" y="40" width="20" height="30" rx="2" fill="#4CD4A1" />
    <rect x="5" y="45" width="5" height="20" rx="2" fill="#4CD4A1" />
    <rect x="30" y="45" width="5" height="20" rx="2" fill="#4CD4A1" />
    <rect x="12" y="70" width="7" height="20" rx="2" fill="#4CD4A1" />
    <rect x="21" y="70" width="7" height="20" rx="2" fill="#4CD4A1" />
    
    <!-- Person 2 -->
    <circle cx="60" cy="20" r="15" fill="#4CD4A1" />
    <rect x="50" y="40" width="20" height="30" rx="2" fill="#4CD4A1" />
    <rect x="45" y="45" width="5" height="20" rx="2" fill="#4CD4A1" />
    <rect x="70" y="45" width="5" height="20" rx="2" fill="#4CD4A1" />
    <rect x="52" y="70" width="7" height="20" rx="2" fill="#4CD4A1" />
    <rect x="61" y="70" width="7" height="20" rx="2" fill="#4CD4A1" />
    
    <!-- Person 3 -->
    <circle cx="100" cy="20" r="15" fill="#4CD4A1" />
    <rect x="90" y="40" width="20" height="30" rx="2" fill="#4CD4A1" />
    <rect x="85" y="45" width="5" height="20" rx="2" fill="#4CD4A1" />
    <rect x="110" y="45" width="5" height="20" rx="2" fill="#4CD4A1" />
    <rect x="92" y="70" width="7" height="20" rx="2" fill="#4CD4A1" />
    <rect x="101" y="70" width="7" height="20" rx="2" fill="#4CD4A1" />
  </g>
  
  <!-- Chart/Graph -->
  <g transform="translate(20, 80)">
    <rect x="0" y="0" width="160" height="2" fill="#D1D5DB" />
    <rect x="10" y="-10" width="5" height="10" fill="#4CD4A1" />
    <rect x="30" y="-20" width="5" height="20" fill="#4CD4A1" />
    <rect x="50" y="-15" width="5" height="15" fill="#4CD4A1" />
    <rect x="70" y="-25" width="5" height="25" fill="#4CD4A1" />
    <rect x="90" y="-10" width="5" height="10" fill="#4CD4A1" />
    <rect x="110" y="-20" width="5" height="20" fill="#4CD4A1" />
    <rect x="130" y="-15" width="5" height="15" fill="#4CD4A1" />
    <rect x="150" y="-25" width="5" height="25" fill="#4CD4A1" />
  </g>
</svg>
